<?xml version="1.0" encoding="UTF-8"?>
<svg width="166px" height="330px" viewBox="0 0 166 330" version="1.1" xmlns="http://www.w3.org/2000/svg" xmlns:xlink="http://www.w3.org/1999/xlink">
    <title>Group 2</title>
    <defs>
        <path d="M15.6282881,3.61250393 C22.4628119,3.61250393 28.0032881,9.15298015 28.0032881,15.9875039 C28.0032881,22.8220277 22.4628119,28.3625039 15.6282881,28.3625039 C8.79376437,28.3625039 3.25328815,22.8220277 3.25328815,15.9875039 C3.25328815,9.15298015 8.79376437,3.61250393 15.6282881,3.61250393 Z M15.6282881,5.91482951 C10.0653037,5.91482951 5.55561373,10.4245195 5.55561373,15.9875039 C5.55561373,21.5504884 10.0653037,26.0601783 15.6282881,26.0601783 C21.1912726,26.0601783 25.7009626,21.5504884 25.7009626,15.9875039 C25.7009626,10.4245195 21.1912726,5.91482951 15.6282881,5.91482951 Z M18.5555722,12.0078112 C19.0051292,11.5582542 19.7340052,11.5582542 20.1835622,12.0078112 C20.6331193,12.4573683 20.6331193,13.1862442 20.1835622,13.6358013 L20.1835622,13.6358013 L17.5442881,16.2755039 L20.1835622,18.914788 C20.601008,19.3322338 20.6308256,19.9905209 20.2730149,20.4423727 L20.1835622,20.542778 C19.7340052,20.992335 19.0051292,20.992335 18.5555722,20.542778 L18.5555722,20.542778 L15.9162881,17.9035039 L13.2765855,20.542778 C12.8591397,20.9602238 12.2008525,20.9900414 11.7490008,20.6322307 L11.6485955,20.542778 C11.1990384,20.093221 11.1990384,19.364345 11.6485955,18.914788 L11.6485955,18.914788 L14.2882881,16.2755039 L11.6485955,13.6358013 C11.2311496,13.2183554 11.2013321,12.5600683 11.5591428,12.1082166 L11.6485955,12.0078112 C12.0981525,11.5582542 12.8270285,11.5582542 13.2765855,12.0078112 L13.2765855,12.0078112 L15.9162881,14.6475039 Z" id="path-1"></path>
    </defs>
    <g id="Product-Artwork" stroke="none" stroke-width="1" fill="none" fill-rule="evenodd">
        <g id="TR4-X-Wiring-Guide" transform="translate(-146.000000, -253.000000)">
            <g id="Group-2" transform="translate(146.000000, 253.000000)">
                <g id="TR4-X-Wire" transform="translate(9.000000, 0.000000)">
                    <g id="Group-5" transform="translate(57.000000, 110.000000)">
                        <g id="Group-3" transform="translate(48.108058, 66.791855)">
                            <g id="Top-Wire" transform="translate(4.000000, 8.708145) scale(1, -1) translate(-4.000000, -8.708145) translate(0.000000, 0.208145)">
                                <rect id="Rectangle" fill="#C4C4C4" x="0" y="0.408119658" width="7.73006135" height="16"></rect>
                                <rect id="Rectangle" fill="#F2F2F2" x="0.858895706" y="2.01495749" width="1.71779141" height="14.4"></rect>
                            </g>
                        </g>
                        <path d="M0.000568999428,0.968372449 L14.0007438,1.03162755 C13.9515096,11.9283345 16.3247751,19.7947443 20.8552322,24.910722 C22.9821217,27.3124928 25.5275179,28.5550348 30.9256642,30.0080659 L32.7136627,30.4740424 L34.0744375,30.8257618 C41.9415726,32.8913497 45.7809887,34.5554245 49.9359685,38.6751343 C56.1620078,44.8483233 59.0154098,54.7778155 59.1058354,68.3305514 L59.1080576,69 L45.1080576,69 C45.1080576,58.4774227 43.2182452,51.7295712 40.0787586,48.6167345 C38.1483282,46.7026907 35.8940674,45.7575782 30.0011985,44.2318231 L28.2889029,43.7914772 L27.2237799,43.5099188 C19.3804164,41.393849 14.7567392,39.1412577 10.3741461,34.192254 C3.42440141,26.3443175 0.0506299173,15.4147647 0.000568999428,1.66969925 L0.000568999428,0.968372449 Z" id="Line-4" fill="#000000" fill-rule="nonzero"></path>
                    </g>
                    <g id="Group-5" transform="translate(30.000000, 152.500000) scale(-1, 1) translate(-30.000000, -152.500000) translate(0.000000, 110.000000)">
                        <g id="Group-3" transform="translate(48.108058, 66.791855)">
                            <g id="Top-Wire" transform="translate(4.000000, 8.708145) scale(1, -1) translate(-4.000000, -8.708145) translate(0.000000, 0.208145)">
                                <rect id="Rectangle" fill="#C4C4C4" x="0" y="0.408119658" width="7.73006135" height="16"></rect>
                                <rect id="Rectangle" fill="#F2F2F2" x="0.858895706" y="2.01495749" width="1.71779141" height="14.4"></rect>
                            </g>
                        </g>
                        <path d="M0.000568999428,0.968372449 L14.0007438,1.03162755 C13.9515096,11.9283345 16.3247751,19.7947443 20.8552322,24.910722 C22.9821217,27.3124928 25.5275179,28.5550348 30.9256642,30.0080659 L32.7136627,30.4740424 L34.0744375,30.8257618 C41.9415726,32.8913497 45.7809887,34.5554245 49.9359685,38.6751343 C56.1620078,44.8483233 59.0154098,54.7778155 59.1058354,68.3305514 L59.1080576,69 L45.1080576,69 C45.1080576,58.4774227 43.2182452,51.7295712 40.0787586,48.6167345 C38.1483282,46.7026907 35.8940674,45.7575782 30.0011985,44.2318231 L28.2889029,43.7914772 L27.2237799,43.5099188 C19.3804164,41.393849 14.7567392,39.1412577 10.3741461,34.192254 C3.42440141,26.3443175 0.0506299173,15.4147647 0.000568999428,1.66969925 L0.000568999428,0.968372449 Z" id="Line-4" fill="#4AA346" fill-rule="nonzero"></path>
                    </g>
                    <g id="Group-3" transform="translate(52.000000, 111.000000)">
                        <g id="Top-Wire" transform="translate(7.000000, 74.708145) scale(1, -1) translate(-7.000000, -74.708145) translate(3.000000, 66.208145)">
                            <rect id="Rectangle" fill="#C4C4C4" x="0" y="0.408119658" width="7.73006135" height="16"></rect>
                            <rect id="Rectangle" fill="#F2F2F2" x="0.858895706" y="2.01495749" width="1.71779141" height="14.4"></rect>
                        </g>
                        <path d="M0.100214754,0.208144796 L12.9836503,0.208144796 C13.1232991,45.5414781 13.1232991,68.2081448 12.9836503,68.2081448 C8.24718417,68.2081448 7.10021475,68.2081448 0.100214754,68.2081448 C-0.0334049179,68.2081448 -0.0334049179,45.5414781 0.100214754,0.208144796 Z" id="Rectangle" fill="#E3515F" transform="translate(6.544193, 34.208145) scale(1, -1) translate(-6.544193, -34.208145) "></path>
                    </g>
                    <path d="M42,0 L75,0 L75,109 C75,110.656854 73.6568542,112 72,112 L45,112 C43.3431458,112 42,110.656854 42,109 L42,0 L42,0 Z" id="Rectangle" fill="#000000"></path>
                    <path d="M60,0 L69,0 L69,100 C69,101.656854 67.6568542,103 66,103 L63,103 C61.3431458,103 60,101.656854 60,100 L60,0 L60,0 Z" id="Rectangle" fill="#292828"></path>
                </g>
                <g id="Group-4" transform="translate(15.134969, 197.389140)" opacity="0.15" stroke="#054E82" stroke-linecap="square" stroke-width="1.71779141">
                    <line x1="1.36503067" y1="16.1108597" x2="1.36503067" y2="0.110859729" id="Line-14"></line>
                    <line x1="103.365031" y1="16.1108597" x2="103.365031" y2="0.110859729" id="Line-14"></line>
                    <line x1="52.3650307" y1="16.1108597" x2="52.3650307" y2="0.110859729" id="Line-14"></line>
                </g>
                <g id="Green-Wire-Big" transform="translate(138.000000, 254.000000) rotate(-90.000000) translate(-138.000000, -254.000000) translate(101.500000, 226.500000)">
                    <path d="M9.19955191,-8.81361448 L23.6771113,-8.81361448 C23.6771113,21.3883152 23.6771113,36.6620097 23.6771113,37.0074689 C23.6771113,37.8539852 23.3775526,40.8307979 24.3402851,41.9479919 C25.7348713,43.5663267 28.6477147,43.2401083 29.5107142,43.2410603 C29.9969675,43.2415967 38.9312675,43.2415967 56.3136145,43.2410603 L56.3136145,56.6863855 C32.8900743,56.6863855 21.0567409,56.6863855 20.8136145,56.6863855 C14.3759473,56.6863855 9.54450292,51.5174605 9.19955191,43.9452247 C9.18199672,43.5598596 9.18199672,25.9735799 9.19955191,-8.81361448 Z" id="Rectangle" stroke="#FFFFFF" stroke-width="0.5" fill="#000000" transform="translate(32.750000, 23.936386) rotate(90.000000) translate(-32.750000, -23.936386) "></path>
                    <g id="Top-Wire" transform="translate(1.800000, 47.100000)">
                        <rect id="Rectangle" fill="#C4C4C4" x="0.9" y="0.1" width="8" height="6"></rect>
                        <rect id="Rectangle" fill="#F2F2F2" x="1.9" y="0.1" width="1.5" height="6"></rect>
                    </g>
                    <g id="Top-Wire" transform="translate(68.700000, 7.600000) scale(1, -1) rotate(-90.000000) translate(-68.700000, -7.600000) translate(64.200000, 4.100000)">
                        <rect id="Rectangle" fill="#C4C4C4" x="0.9" y="0.1" width="8" height="6"></rect>
                        <rect id="Rectangle" fill="#F2F2F2" x="1.9" y="0.1" width="1.5" height="6"></rect>
                    </g>
                    <text id="B" font-family="Lato-BoldItalic, Lato" font-size="8.03681" font-style="italic" font-weight="bold" fill="#FFFFFF">
                        <tspan x="44.588957" y="11">B</tspan>
                    </text>
                </g>
                <g id="Green-Wire-Big" transform="translate(112.500000, 263.500000) rotate(-90.000000) translate(-112.500000, -263.500000) translate(66.500000, 211.500000)">
                    <path d="M-5.95,5.95 L7.9134968,5.95 C7.9134968,29.4269891 7.9134968,46.173873 7.9134968,56.1906518 C7.9134968,62.4362095 7.59734427,69.9438762 10.2836248,73.1322591 C14.0598283,77.6142864 22.1473985,76.4450557 31.2114927,76.4450557 C41.5528429,76.4450557 61.299012,76.4450557 90.45,76.4450557 L90.25,90.45 C39.3947979,90.45 13.8456337,90.45 13.6025072,90.45 C0.620117004,90.45 -5.95,78.8076609 -5.95,71.1820447 C-5.95,70.7963726 -5.95,49.0523577 -5.95,5.95 Z" id="Rectangle" stroke="#FFFFFF" stroke-width="0.5" fill="#D84B4B" transform="translate(42.250000, 48.200000) rotate(90.000000) translate(-42.250000, -48.200000) "></path>
                    <g id="Top-Wire" transform="translate(1.800000, 96.100000)">
                        <rect id="Rectangle" fill="#C4C4C4" x="0.9" y="0.1" width="8" height="6"></rect>
                        <rect id="Rectangle" fill="#F2F2F2" x="1.9" y="0.1" width="1.5" height="6"></rect>
                    </g>
                    <g id="Top-Wire" transform="translate(87.700000, 6.600000) scale(1, -1) rotate(-90.000000) translate(-87.700000, -6.600000) translate(83.200000, 3.100000)">
                        <rect id="Rectangle" fill="#C4C4C4" x="0.9" y="0.1" width="8" height="6"></rect>
                        <rect id="Rectangle" fill="#F2F2F2" x="1.9" y="0.1" width="1.5" height="6"></rect>
                    </g>
                    <text id="R" font-family="Lato-BoldItalic, Lato" font-size="8.03681" font-style="italic" font-weight="bold" fill="#FFFFFF">
                        <tspan x="63.5708742" y="10">R</tspan>
                    </text>
                </g>
                <g id="Black-Wire-Big" transform="translate(82.500000, 273.000000) rotate(-90.000000) translate(-82.500000, -273.000000) translate(26.000000, 191.000000)">
                    <path d="M-20.7,30.2 L-6.47716776,30.2 C-6.47716776,55.6956372 -6.47716776,73.1956372 -6.47716776,82.7 C-6.47716776,96.3846742 -3.69801081,104.090731 0.185112443,110.030026 C6.7935671,120.137756 17.9350184,121.670775 24.6340129,121.670775 C35.8676837,121.670775 69.8896794,121.670775 126.7,121.670775 L126.7,135.2 C78.4496948,135.2 44.4276991,135.2 24.6340129,135.2 C-5.05651643,135.2 -20.7,114.2 -20.7,82.7 C-20.7,67.5442261 -20.7,50.0442261 -20.7,30.2 Z" id="Rectangle" stroke="#FFFFFF" stroke-width="0.5" fill="#E4E4E4" transform="translate(53.000000, 82.700000) rotate(90.000000) translate(-53.000000, -82.700000) "></path>
                    <g id="Top-Wire" transform="translate(2.800000, 156.100000)">
                        <rect id="Rectangle" fill="#C4C4C4" x="0.9" y="0.1" width="8" height="6"></rect>
                        <rect id="Rectangle" fill="#F2F2F2" x="1.9" y="0.1" width="1.5" height="6"></rect>
                    </g>
                    <g id="Top-Wire" transform="translate(108.700000, 15.600000) scale(1, -1) rotate(-90.000000) translate(-108.700000, -15.600000) translate(104.200000, 12.100000)">
                        <rect id="Rectangle" fill="#C4C4C4" x="0.9" y="0.1" width="8" height="6"></rect>
                        <rect id="Rectangle" fill="#F2F2F2" x="1.9" y="0.1" width="1.5" height="6"></rect>
                    </g>
                    <g id="Group-2" transform="translate(66.000000, 0.000000)">
                        <path d="M15.9032881,31.1125039 C7.398103,31.1125039 0.503288147,24.2176891 0.503288147,15.7125039 C0.503288147,7.20731878 7.398103,0.312503926 15.9032881,0.312503926 C24.4084733,0.312503926 31.3032881,7.20731878 31.3032881,15.7125039 C31.3032881,24.2176891 24.4084733,31.1125039 15.9032881,31.1125039 Z" id="Oval" fill="#FFFFFF" fill-rule="nonzero"></path>
                        <mask id="mask-2" fill="white">
                            <use xlink:href="#path-1"></use>
                        </mask>
                        <use id="Combined-Shape" fill="#E4E4E4" fill-rule="nonzero" xlink:href="#path-1"></use>
                    </g>
                </g>
            </g>
        </g>
    </g>
</svg>