<?xml version="1.0" encoding="UTF-8"?>
<svg width="394px" height="205px" viewBox="0 0 394 205" version="1.1" xmlns="http://www.w3.org/2000/svg" xmlns:xlink="http://www.w3.org/1999/xlink">
    <title>Group 2</title>
    <defs>
        <path d="M9.41645082,2.24251021 C13.7601704,2.24251021 17.2814508,5.76379065 17.2814508,10.1075102 C17.2814508,14.4512298 13.7601704,17.9725102 9.41645082,17.9725102 C5.07273126,17.9725102 1.55145082,14.4512298 1.55145082,10.1075102 C1.55145082,5.76379065 5.07273126,2.24251021 9.41645082,2.24251021 Z M9.41645082,3.70576602 C5.88086513,3.70576602 3.01470663,6.57192452 3.01470663,10.1075102 C3.01470663,13.6430959 5.88086513,16.5092544 9.41645082,16.5092544 C12.9520365,16.5092544 15.818195,13.6430959 15.818195,10.1075102 C15.818195,6.57192452 12.9520365,3.70576602 9.41645082,3.70576602 Z M6.88713502,7.57819441 C7.17284617,7.29247594 7.63609466,7.29247594 7.92181313,7.57819441 L7.92181313,7.57819441 L9.59945082,9.25551021 L11.2769025,7.57819441 C11.5366465,7.31845034 11.9431036,7.29483725 12.2295227,7.50735512 L12.3115806,7.57819441 C12.597299,7.86390556 12.597299,8.32715405 12.3115806,8.61287252 L12.3115806,8.61287252 L10.6344508,10.2905102 L12.3115806,11.9679618 C12.5713246,12.2277059 12.5949377,12.634163 12.3824199,12.9205821 L12.3115806,13.00264 C12.0258621,13.2883584 11.5626209,13.2883584 11.2769025,13.00264 L11.2769025,13.00264 L9.59945082,11.3255102 L7.92181313,13.00264 C7.66206906,13.262384 7.25560597,13.2859971 6.96919123,13.0734792 L6.88713502,13.00264 C6.60141655,12.7169215 6.60141655,12.2536803 6.88713502,11.9679618 L6.88713502,11.9679618 L8.56445082,10.2905102 L6.88713502,8.61287252 C6.62739095,8.35312845 6.60377786,7.94666536 6.81629573,7.66025061 Z" id="path-1"></path>
    </defs>
    <g id="Product-Artwork" stroke="none" stroke-width="1" fill="none" fill-rule="evenodd">
        <g id="TR4-Wiring-Guide" transform="translate(-11.000000, -295.000000)">
            <g id="Group-2" transform="translate(11.000000, 295.000000)">
                <g id="TR401-Open" transform="translate(50.000000, 0.000000)">
                    <path d="M15.9524376,0 L323.13912,0 C329.23855,0 334.183115,4.93931018 334.183115,11.0322581 L334.183115,178.967742 C334.183115,185.06069 329.23855,190 323.13912,190 L15.9524376,190 C9.85300742,190 4.90844233,185.06069 4.90844233,178.967742 L4.90844233,11.0322581 C4.90844233,4.93931018 9.85300742,0 15.9524376,0 Z" id="Rectangle" fill="#E8E3E3"></path>
                    <path d="M20.8608799,3.67741935 L318.230678,3.67741935 C324.556013,3.67741935 329.68371,8.79966695 329.68371,15.1182796 L329.68371,173.655914 C329.68371,179.974527 324.556013,185.096774 318.230678,185.096774 L20.8608799,185.096774 C14.5355449,185.096774 9.4078478,179.974527 9.4078478,173.655914 L9.4078478,15.1182796 C9.4078478,8.79966695 14.5355449,3.67741935 20.8608799,3.67741935 Z" id="Rectangle" fill="#FFFFFF"></path>
                    <path d="M24.9512485,6.94623656 L314.549346,6.94623656 C320.874681,6.94623656 326.002378,12.0684842 326.002378,18.3870968 L326.002378,172.430108 C326.002378,178.74872 320.874681,183.870968 314.549346,183.870968 L24.9512485,183.870968 C18.6259135,183.870968 13.4982164,178.74872 13.4982164,172.430108 L13.4982164,18.3870968 C13.4982164,12.0684842 18.6259135,6.94623656 24.9512485,6.94623656 Z" id="Rectangle" fill="#5B93C3"></path>
                    <path d="M2.86325803,55.9784946 L6.95362663,55.9784946 L6.95362663,132.795699 L2.86325803,132.795699 C1.28192428,132.795699 0,131.515137 0,129.935484 L0,58.8387097 C0,57.2590565 1.28192428,55.9784946 2.86325803,55.9784946 Z" id="Rectangle" fill="#E8E3E3"></path>
                    <path d="M3.27229489,57.6129032 L5.72651605,57.6129032 L5.72651605,131.16129 L3.27229489,131.16129 C2.36867561,131.16129 1.63614744,130.429541 1.63614744,129.526882 L1.63614744,59.2473118 C1.63614744,58.3446529 2.36867561,57.6129032 3.27229489,57.6129032 Z" id="Rectangle" fill="#FFFFFF"></path>
                    <path d="M7.32007078,78.9158045 C7.34834165,79.0201794 7.3626635,79.1278321 7.3626635,79.2359601 L7.3626635,108.695817 C7.3626635,109.372811 6.81326737,109.921623 6.13555291,109.921623 C6.02112688,109.921623 5.90726321,109.905636 5.79727103,109.874125 L0.888828699,108.467948 C0.362610722,108.317196 0,107.836488 0,107.28964 L0,80.5626307 C0,80.0089375 0.371571102,79.5239851 0.90661441,79.3793717 L5.81505674,78.0527011 C6.4692479,77.875884 7.14306563,78.2623086 7.32007078,78.9158045 Z M5.72651605,79.7693548 L1.63614744,80.8750323 L1.63614744,106.981849 L5.72651605,108.153312 L5.72651605,79.7693548 Z" id="Rectangle" fill="#E8E3E3" fill-rule="nonzero"></path>
                    <path d="M3.27229489,91.5268817 L4.09036861,91.5268817 C4.54217825,91.5268817 4.90844233,91.8927565 4.90844233,92.344086 L4.90844233,96.0215054 C4.90844233,96.4728348 4.54217825,96.8387097 4.09036861,96.8387097 L3.27229489,96.8387097 C2.82048525,96.8387097 2.45422117,96.4728348 2.45422117,96.0215054 L2.45422117,92.344086 C2.45422117,91.8927565 2.82048525,91.5268817 3.27229489,91.5268817 Z" id="Rectangle" fill="#E8E3E3"></path>
                    <polygon id="Rectangle" fill="#A0A0A0" points="234.378121 70.2795699 252.78478 70.2795699 252.78478 94.7956989 234.378121 94.7956989"></polygon>
                    <polygon id="Rectangle" fill="#FFFFFF" points="234.378121 60.8817204 252.78478 60.8817204 252.78478 85.3978495 234.378121 85.3978495"></polygon>
                    <polygon id="Rectangle" fill="#A0A0A0" points="250.739596 71.5053763 252.78478 71.5053763 252.78478 75.1827957 250.739596 75.1827957"></polygon>
                    <polygon id="Rectangle" fill="#8A8787" points="236.423306 62.9247312 250.739596 62.9247312 250.739596 83.3548387 236.423306 83.3548387"></polygon>
                    <polygon id="Rectangle" fill="#FFFFFF" points="236.423306 59.2473118 250.739596 59.2473118 250.739596 79.6774194 236.423306 79.6774194"></polygon>
                    <path d="M231.332958,47.0209008 L231.315962,47.040562 L230.878785,47.601914 L230.581269,47.9963873 L230.509532,48.0945962 C230.005439,48.792733 229.513487,49.5630952 229.052995,50.4104698 C226.391936,55.3072177 225.900445,60.4018903 228.837038,65.3899179 L228.944675,65.5701611 C230.691037,68.4536467 230.45326,73.6189402 228.303573,76.7198894 C225.422556,80.8757918 220.302681,80.7242973 214.423846,75.8640507 L214.245468,75.7153287 L212.680731,74.3997709 L215.314646,71.2736228 L216.879383,72.5891805 C219.272023,74.6008008 221.220642,75.53458 222.654834,75.5889647 C223.638427,75.6262626 224.358456,75.2336964 224.940804,74.3936523 C226.186067,72.5973442 226.343865,69.1694643 225.444955,67.6852386 C222.17488,62.2858938 222.058476,56.7622233 224.043777,51.5266932 L224.194664,51.1394093 C224.555631,50.2370057 224.978606,49.3435141 225.45816,48.4610642 C225.945521,47.5642464 226.461533,46.7413586 226.992357,45.9848852 L227.244485,45.6321922 L227.475121,45.3222472 L227.814797,44.8787958 L228.031902,44.603777 L228.04369,44.5903227 L228.030062,44.6105845 C230.079305,41.8084393 233.183201,39.8967548 235.591548,39.2259077 C242.051532,37.426474 246.142302,41.5117574 247.440752,48.6055082 C248.391756,53.8010757 247.722155,60.3022478 245.982939,63.2855304 L245.959182,63.3251613 L245.955112,63.3386037 C245.941144,63.3870782 245.926608,63.4463322 245.912035,63.5158347 L245.882995,63.6683466 C245.868607,63.7512775 245.854534,63.8441026 245.841306,63.9462908 L245.829785,64.039577 C245.79987,64.2936392 245.777067,64.5844187 245.761743,64.9109512 L245.748924,65.2493657 C245.747208,65.3077425 245.745703,65.3671035 245.744411,65.4274443 L245.739224,65.8012101 L245.738572,65.9968438 L245.738572,68.0398546 L241.648204,68.0398546 L241.648204,65.9968438 L241.650781,65.5773015 C241.651646,65.5088584 241.652731,65.4411509 241.654041,65.3741723 L241.664626,64.9809912 C241.713557,63.5709915 241.875144,62.5070803 242.193469,61.71601 L242.237853,61.609821 L242.305225,61.4546039 L242.397238,61.3125713 C242.9454,60.4664225 243.3735,58.8202173 243.600595,56.8614076 L243.642017,56.4785106 C243.648495,56.4140875 243.654759,56.3493718 243.660805,56.2843799 L243.694453,55.891245 C243.859768,53.7782448 243.796991,51.4159222 243.417092,49.3404402 L243.385212,49.1700166 L243.318554,48.835852 C243.307121,48.7809013 243.295527,48.7263226 243.283771,48.6721164 L243.21129,48.351352 L243.134907,48.0395481 C243.12185,47.9883287 243.10863,47.9374835 243.095247,47.887013 L243.012979,47.58869 C242.942781,47.3438404 242.868476,47.1083805 242.79002,46.8823663 L242.693877,46.6156869 C241.548901,43.5574068 239.586975,42.3548821 236.690221,43.1617753 C236.164693,43.3081617 235.282367,43.69817 234.411487,44.2345435 C233.208594,44.9754031 232.146071,45.9090468 231.332958,47.0209008 Z" id="Line-2" fill="#D84B4B" fill-rule="nonzero"></path>
                    <path d="M230.923922,52.7413309 L230.906925,52.7609921 L230.469748,53.3223441 L230.172232,53.7168174 L230.100495,53.8150263 C229.596403,54.5131632 229.10445,55.2835253 228.643958,56.1308999 C225.982899,61.0276478 225.491408,66.1223204 228.428001,71.110348 L228.535638,71.2905912 C230.282,74.1740769 230.044223,79.3393703 227.894536,82.4403195 C225.013519,86.5962219 219.893644,86.4447274 214.014809,81.5844808 L213.836431,81.4357588 L212.271694,80.1202011 L214.905609,76.9940529 L216.470346,78.3096107 C218.862987,80.3212309 220.811605,81.2550102 222.245797,81.3093948 C223.22939,81.3466927 223.949419,80.9541265 224.531767,80.1140825 C225.777031,78.3177743 225.934829,74.8898944 225.035918,73.4056687 C221.765843,68.0063239 221.649439,62.4826534 223.63474,57.2471233 L223.785628,56.8598394 C224.146594,55.9574358 224.569569,55.0639442 225.049123,54.1814943 C225.536484,53.2846765 226.052496,52.4617887 226.58332,51.7053153 L226.835448,51.3526223 L227.066084,51.0426773 L227.40576,50.5992259 L227.622865,50.3242071 L227.634653,50.3107528 L227.621025,50.3310147 C229.670268,47.5288694 232.774164,45.6171849 235.182511,44.9463378 C241.642495,43.1469041 245.733265,47.2321875 247.031715,54.3259383 C247.98272,59.5215058 247.313118,66.0226779 245.573902,69.0059605 L245.550145,69.0455914 L245.546075,69.0590338 C245.532107,69.1075083 245.517571,69.1667623 245.502998,69.2362648 L245.473958,69.3887767 C245.45957,69.4717076 245.445497,69.5645327 245.432269,69.6667209 L245.420748,69.7600071 C245.390833,70.0140693 245.36803,70.3048488 245.352706,70.6313813 L245.339888,70.9697959 C245.338171,71.0281726 245.336666,71.0875337 245.335374,71.1478744 L245.330187,71.5216402 L245.329535,71.717274 L245.329535,73.7602847 L241.239167,73.7602847 L241.239167,71.717274 L241.241745,71.2977316 C241.242609,71.2292885 241.243695,71.161581 241.245004,71.0946024 L241.255589,70.7014213 C241.30452,69.2914217 241.466108,68.2275104 241.784432,67.4364401 L241.828816,67.3302512 L241.896188,67.175034 L241.988201,67.0330014 C242.536364,66.1868526 242.964463,64.5406474 243.191558,62.5818377 L243.23298,62.1989407 C243.239458,62.1345176 243.245722,62.0698019 243.251768,62.00481 L243.285416,61.6116751 C243.450731,59.4986749 243.387954,57.1363523 243.008055,55.0608703 L242.976175,54.8904467 L242.909517,54.5562821 C242.898084,54.5013314 242.88649,54.4467527 242.874734,54.3925465 L242.802254,54.0717821 L242.72587,53.7599782 C242.712813,53.7087588 242.699594,53.6579136 242.68621,53.6074431 L242.603942,53.3091201 C242.533745,53.0642705 242.459439,52.8288106 242.380983,52.6027965 L242.28484,52.336117 C241.139864,49.2778369 239.177939,48.0753122 236.281185,48.8822054 C235.755656,49.0285918 234.87333,49.4186001 234.00245,49.9549736 C232.799557,50.6958332 231.737034,51.6294769 230.923922,52.7413309 Z" id="Line-2" fill="#5B5B5B" fill-rule="nonzero"></path>
                    <path d="M24.9512485,10.2150538 L215.562426,10.2150538 C219.402808,10.2150538 222.516052,13.3249898 222.516052,17.1612903 L222.516052,79.6774194 C222.516052,83.5137199 219.402808,86.6236559 215.562426,86.6236559 L24.9512485,86.6236559 C21.1108666,86.6236559 17.9976219,83.5137199 17.9976219,79.6774194 L17.9976219,17.1612903 C17.9976219,13.3249898 21.1108666,10.2150538 24.9512485,10.2150538 Z" id="Rectangle" fill="#0062B5"></path>
                    <path d="M21.2699168,48.2150538 L219.243757,48.2150538 L219.243757,75.5913978 C219.243757,79.4276984 216.130513,82.5376344 212.290131,82.5376344 L28.2235434,82.5376344 C24.3831615,82.5376344 21.2699168,79.4276984 21.2699168,75.5913978 L21.2699168,48.2150538 Z" id="Rectangle" fill="#0269BF"></path>
                    <g id="Group-3" transform="translate(93.464923, 135.655914) scale(1, -1) rotate(90.000000) translate(-93.464923, -135.655914) translate(49.493460, 91.526882)">
                        <polygon id="Rectangle-2198" fill="#00448B" points="0.409036861 88.2580645 0.409036861 0.408602151 7.3626635 0.408602151 7.3626635 88.2580645"></polygon>
                        <g id="Degson" transform="translate(43.971463, 44.129032) scale(-1, 1) rotate(-90.000000) translate(-43.971463, -44.129032) translate(-0.204518, 0.204301)">
                            <path d="M10.6612052,0.406254174 C10.6612052,0.181886189 10.8440539,9.10742503e-15 11.0728613,9.10742503e-15 L87.6284067,9.10742503e-15 C87.8532515,9.10742503e-15 88.0355242,0.179414292 88.0355242,0.409872872 L88.0355242,87.1510122 C88.0355242,87.3773787 87.8538814,87.5489107 87.6253657,87.5338463 L45.2066113,84.7374904 L11.0732322,84.7374904 C10.845676,84.7374904 10.6612052,84.5508855 10.6612052,84.3312363 L10.6612052,0.406254174 Z" id="Rectangle-24" fill="#0062B5"></path>
                            <polygon id="Rectangle-26" fill="#004F94" points="50.2641151 5.27596683 83.2665392 5.27596683 83.26654 79.4438851 50.2641151 79.443885"></polygon>
                            <polygon id="Rectangle-26" fill="#004F94" points="0.100429264 2.995895 10.661205 0.0826805712 10.6612052 84.8201728 0.100429264 87.4091822"></polygon>
                            <polygon id="Rectangle-26" fill="#034075" points="1.33265065 57.0459559 9.51338768 54.4640679 9.51338787 74.5657818 1.33265065 77.2268015"></polygon>
                            <polygon id="Rectangle-26" fill="#034075" points="0.99948799 34.2057687 9.66171703 31.6238807 9.66171724 51.7255946 0.99948799 54.3866143"></polygon>
                            <polygon id="Rectangle-26" fill="#034075" points="0.99948799 11.4430351 9.66171703 8.86114707 9.66171724 28.962861 0.99948799 31.6238807"></polygon>
                            <g id="Oval-11-+-Line-+-Line" transform="translate(29.996681, 65.153130) rotate(-22.000000) translate(-29.996681, -65.153130) translate(21.406907, 56.572485)">
                                <ellipse id="Oval-11" fill="#D8D8D8" cx="8.58063047" cy="8.57344609" rx="8.58063047" ry="8.57344609"></ellipse>
                                <polygon id="Line" fill="#979797" fill-rule="nonzero" points="9.19418576 3.38803829 9.19418576 13.7588539 7.96707518 13.7588539 7.96707518 3.38803829"></polygon>
                                <polygon id="Line" fill="#979797" fill-rule="nonzero" points="13.770522 7.96054287 13.770522 9.18634932 3.39073893 9.18634932 3.39073893 7.96054287"></polygon>
                            </g>
                            <g id="Oval-11-+-Line-+-Line" transform="translate(30.084761, 42.700016) rotate(46.000000) translate(-30.084761, -42.700016) translate(21.085950, 33.710769)">
                                <ellipse id="Oval-11" fill="#979797" cx="9.19875696" cy="9.17075258" rx="8.61028397" ry="8.60307477"></ellipse>
                                <ellipse id="Oval-11" fill="#D8D8D8" cx="8.61028397" cy="8.60307477" rx="8.61028397" ry="8.60307477"></ellipse>
                                <polygon id="Line" fill="#979797" fill-rule="nonzero" points="9.22383926 3.401865 9.22383926 13.8042845 7.99672868 13.8042845 7.99672868 3.401865"></polygon>
                                <polygon id="Line" fill="#979797" fill-rule="nonzero" points="13.8159907 7.99017154 13.8159907 9.215978 3.40457723 9.215978 3.40457723 7.99017154"></polygon>
                            </g>
                            <g id="Oval-11-+-Line-+-Line" transform="translate(29.935164, 19.689186) rotate(103.000000) translate(-29.935164, -19.689186) translate(21.140872, 10.904240)">
                                <ellipse id="Oval-11" fill="#D8D8D8" cx="8.61028397" cy="8.60307477" rx="8.61028397" ry="8.60307477"></ellipse>
                                <polygon id="Line" fill="#979797" fill-rule="nonzero" points="9.22383926 3.401865 9.22383926 13.8042845 7.99672868 13.8042845 7.99672868 3.401865"></polygon>
                                <polygon id="Line" fill="#979797" fill-rule="nonzero" points="13.8159907 7.99017154 13.8159907 9.215978 3.40457723 9.215978 3.40457723 7.99017154"></polygon>
                            </g>
                            <ellipse id="Oval-13" fill="#D8D8D8" cx="66.582318" cy="42.2259748" rx="5.28038798" ry="5.27596683"></ellipse>
                            <ellipse id="Oval-13" fill="#D8D8D8" cx="66.9154807" cy="19.5899339" rx="5.28038798" ry="5.27596683"></ellipse>
                            <path d="M66.9154807,70.4708655 C69.8317584,70.4708655 72.1958687,68.1087347 72.1958687,65.1948986 C72.1958687,62.2810626 69.8317584,59.9189318 66.9154807,59.9189318 C63.9992029,59.9189318 61.6350927,62.2810626 61.6350927,65.1948986 C61.6350927,68.1087347 63.9992029,70.4708655 66.9154807,70.4708655 Z" id="Oval-13" fill="#D8D8D8"></path>
                            <path d="M66.582318,36.950008 C69.4985958,36.950008 71.862706,39.3121388 71.862706,42.2259748 C71.862706,45.1398108 69.4985958,47.5019416 66.582318,47.5019416 C63.6660403,47.5019416 61.30193,45.1398108 61.30193,42.2259748 C61.30193,39.3121388 63.6660403,36.950008 66.582318,36.950008 Z M66.582318,38.1758144 C64.3438167,38.1758144 62.5290406,39.989071 62.5290406,42.2259748 C62.5290406,44.4628785 64.3438167,46.2761352 66.582318,46.2761352 C68.8208193,46.2761352 70.6355954,44.4628785 70.6355954,42.2259748 C70.6355954,39.989071 68.8208193,38.1758144 66.582318,38.1758144 Z" id="Oval-13" fill="#0062B5" fill-rule="nonzero"></path>
                            <path d="M66.9154807,14.313967 C69.8317584,14.313967 72.1958687,16.6760979 72.1958687,19.5899339 C72.1958687,22.5037699 69.8317584,24.8659007 66.9154807,24.8659007 C63.9992029,24.8659007 61.6350927,22.5037699 61.6350927,19.5899339 C61.6350927,16.6760979 63.9992029,14.313967 66.9154807,14.313967 Z M66.9154807,15.5397735 C64.6769794,15.5397735 62.8622033,17.3530301 62.8622033,19.5899339 C62.8622033,21.8268376 64.6769794,23.6400942 66.9154807,23.6400942 C69.153982,23.6400942 70.9687581,21.8268376 70.9687581,19.5899339 C70.9687581,17.3530301 69.153982,15.5397735 66.9154807,15.5397735 Z" id="Oval-13" fill="#0062B5" fill-rule="nonzero"></path>
                            <path d="M66.9154807,59.9189318 C69.8317584,59.9189318 72.1958687,62.2810626 72.1958687,65.1948986 C72.1958687,68.1087347 69.8317584,70.4708655 66.9154807,70.4708655 C63.9992029,70.4708655 61.6350927,68.1087347 61.6350927,65.1948986 C61.6350927,62.2810626 63.9992029,59.9189318 66.9154807,59.9189318 Z M66.9154807,61.1447383 C64.6769794,61.1447383 62.8622033,62.9579949 62.8622033,65.1948986 C62.8622033,67.4318024 64.6769794,69.245059 66.9154807,69.245059 C69.153982,69.245059 70.9687581,67.4318024 70.9687581,65.1948986 C70.9687581,62.9579949 69.153982,61.1447383 66.9154807,61.1447383 Z" id="Oval-13" fill="#0062B5" fill-rule="nonzero"></path>
                        </g>
                    </g>
                    <g id="Test-Button" transform="translate(283.053508, 100.924731)">
                        <rect id="Rectangle-14" fill="#5B5B5B" x="0" y="3.98387097" width="37.2003856" height="37.1827957" rx="2"></rect>
                        <rect id="Rectangle-14" fill="#D8D8D8" x="0" y="0" width="37.2003856" height="37.1827957" rx="2"></rect>
                        <ellipse id="Oval-1" fill="#D84B4B" cx="18.6001928" cy="18.5913978" rx="11.9572668" ry="11.9516129"></ellipse>
                        <ellipse id="Oval-1" fill="#4E4E4E" cx="3.321463" cy="3.31989247" rx="1.9928778" ry="1.99193548"></ellipse>
                        <ellipse id="Oval-1" fill="#4E4E4E" cx="33.8789226" cy="3.31989247" rx="1.9928778" ry="1.99193548"></ellipse>
                        <ellipse id="Oval-1" fill="#4E4E4E" cx="33.8789226" cy="33.8629032" rx="1.9928778" ry="1.99193548"></ellipse>
                        <ellipse id="Oval-1" fill="#4E4E4E" cx="3.321463" cy="33.8629032" rx="1.9928778" ry="1.99193548"></ellipse>
                    </g>
                    <g id="LED" transform="translate(302.278240, 14.709677)">
                        <path d="M0,1.2271312 C0,1.00073483 0.180509267,0.817204301 0.412656742,0.817204301 L14.7217071,0.817204301 C14.9496111,0.817204301 15.1343639,0.996167255 15.1343639,1.2271312 L15.1343639,16.3427613 C15.1343639,16.5691576 14.9538546,16.7526882 14.7217071,16.7526882 L0.412656742,16.7526882 C0.184752717,16.7526882 0,16.5737252 0,16.3427613 L0,1.2271312 Z" id="Rectangle-15" fill="#CAC799"></path>
                        <path d="M0,0.408773534 C0,0.183014145 0.180509267,0 0.412656742,0 L14.7217071,0 C14.9496111,0 15.1343639,0.185984673 15.1343639,0.408773534 L15.1343639,14.3009039 C15.1343639,14.5266633 14.9538546,14.7096774 14.7217071,14.7096774 L0.412656742,14.7096774 C0.184752717,14.7096774 0,14.5236927 0,14.3009039 L0,0.408773534 Z" id="Rectangle-15" fill="#F0EDC9"></path>
                        <rect id="Rectangle-16" fill="#D8D8D8" x="3.57671874" y="2.75806452" width="7.9715112" height="1.32795699"></rect>
                        <rect id="Rectangle-16" fill="#D8D8D8" x="3.57671874" y="6.74193548" width="7.9715112" height="1.32795699"></rect>
                        <rect id="Rectangle-16" fill="#D8D8D8" x="3.57671874" y="10.7258065" width="7.9715112" height="1.32795699"></rect>
                        <path d="M11.5482299,2.75806452 L11.5482299,4.08602151 L3.57671874,4.08602151 L3.57671874,2.75806452 L11.5482299,2.75806452 Z M11.1388918,3.16625806 L3.98565517,3.16625806 L3.98565517,3.67741935 L11.1388918,3.67741935 L11.1388918,3.16625806 Z" id="Rectangle-16" fill="#CAC799" fill-rule="nonzero"></path>
                        <path d="M11.5482299,6.74193548 L11.5482299,8.06989247 L3.57671874,8.06989247 L3.57671874,6.74193548 L11.5482299,6.74193548 Z M11.1388918,7.15053763 L3.98565517,7.15053763 L3.98565517,7.66129032 L11.1388918,7.66129032 L11.1388918,7.15053763 Z" id="Rectangle-16" fill="#CAC799" fill-rule="nonzero"></path>
                        <path d="M11.5482299,10.7258065 L11.5482299,12.0537634 L3.57671874,12.0537634 L3.57671874,10.7258065 L11.5482299,10.7258065 Z M11.1388918,11.1344086 L3.98565517,11.1344086 L3.98565517,11.6447527 L11.1388918,11.6447527 L11.1388918,11.1344086 Z" id="Rectangle-16" fill="#CAC799" fill-rule="nonzero"></path>
                    </g>
                    <g id="LED" transform="translate(148.480380, 111.956989)">
                        <path d="M0,1.2271312 C0,1.00073483 0.180509267,0.817204301 0.412656742,0.817204301 L14.7217071,0.817204301 C14.9496111,0.817204301 15.1343639,0.996167255 15.1343639,1.2271312 L15.1343639,16.3427613 C15.1343639,16.5691576 14.9538546,16.7526882 14.7217071,16.7526882 L0.412656742,16.7526882 C0.184752717,16.7526882 0,16.5737252 0,16.3427613 L0,1.2271312 Z" id="Rectangle-15" fill="#CAC799"></path>
                        <path d="M0,0.408773534 C0,0.183014145 0.180509267,0 0.412656742,0 L14.7217071,0 C14.9496111,0 15.1343639,0.185984673 15.1343639,0.408773534 L15.1343639,14.3009039 C15.1343639,14.5266633 14.9538546,14.7096774 14.7217071,14.7096774 L0.412656742,14.7096774 C0.184752717,14.7096774 0,14.5236927 0,14.3009039 L0,0.408773534 Z" id="Rectangle-15" fill="#F0EDC9"></path>
                        <rect id="Rectangle-16" fill="#D8D8D8" x="3.57671874" y="2.75806452" width="7.9715112" height="1.32795699"></rect>
                        <rect id="Rectangle-16" fill="#D8D8D8" x="3.57671874" y="6.74193548" width="7.9715112" height="1.32795699"></rect>
                        <rect id="Rectangle-16" fill="#D8D8D8" x="3.57671874" y="10.7258065" width="7.9715112" height="1.32795699"></rect>
                        <path d="M11.5482299,2.75806452 L11.5482299,4.08602151 L3.57671874,4.08602151 L3.57671874,2.75806452 L11.5482299,2.75806452 Z M11.1388918,3.16625806 L3.98565517,3.16625806 L3.98565517,3.67741935 L11.1388918,3.67741935 L11.1388918,3.16625806 Z" id="Rectangle-16" fill="#CAC799" fill-rule="nonzero"></path>
                        <path d="M11.5482299,6.74193548 L11.5482299,8.06989247 L3.57671874,8.06989247 L3.57671874,6.74193548 L11.5482299,6.74193548 Z M11.1388918,7.15012903 L3.98565517,7.15012903 L3.98565517,7.66129032 L11.1388918,7.66129032 L11.1388918,7.15012903 Z" id="Rectangle-16" fill="#CAC799" fill-rule="nonzero"></path>
                        <path d="M11.5482299,10.7258065 L11.5482299,12.0537634 L3.57671874,12.0537634 L3.57671874,10.7258065 L11.5482299,10.7258065 Z M11.1388918,11.1344086 L3.98565517,11.1344086 L3.98565517,11.6447527 L11.1388918,11.6447527 L11.1388918,11.1344086 Z" id="Rectangle-16" fill="#CAC799" fill-rule="nonzero"></path>
                    </g>
                    <g id="Group-4" transform="translate(148.480380, 75.182796)">
                        <g id="Group-2" transform="translate(12.271106, 0.000000)">
                            <polygon id="Rectangle" fill="#3F3F3F" points="1.63614744 29.0107527 0 29.0107527 0 27.3763441 13.4982164 27.3763441 13.4982164 29.0201445 11.862069 29.0201445 11.862069 31.0537634 1.63614744 31.0537634"></polygon>
                            <polygon id="Rectangle" fill="#313131" points="1.63614744 18.7956989 11.862069 18.7956989 11.862069 29.0107527 1.63614744 29.0107527"></polygon>
                            <polygon id="Rectangle" fill="#313131" points="0 20.4301075 13.4982164 20.4301075 13.4982164 27.3763441 0 27.3763441"></polygon>
                            <polygon id="Rectangle" fill="#B8B887" points="5.31747919 1.07083963 6.14307039 0 7.77961562 0 8.58977408 1.07083963 8.58977408 23.6600528 8.20083806 24.5533421 5.76440359 24.5533421 5.31747919 23.6600528"></polygon>
                            <polygon id="Rectangle" fill="#ACAC7F" points="6.95362663 0 7.77170036 0 8.58977408 1.07259895 8.58977408 23.6989247 6.95362663 23.6989247"></polygon>
                        </g>
                        <g id="Group-2" transform="translate(24.542212, 0.000000)">
                            <polygon id="Rectangle" fill="#3F3F3F" points="1.63614744 29.0107527 0 29.0107527 0 27.3763441 13.4982164 27.3763441 13.4982164 29.0201445 11.862069 29.0201445 11.862069 31.0537634 1.63614744 31.0537634"></polygon>
                            <polygon id="Rectangle" fill="#313131" points="1.63614744 18.7956989 11.862069 18.7956989 11.862069 29.0107527 1.63614744 29.0107527"></polygon>
                            <polygon id="Rectangle" fill="#313131" points="0 20.4301075 13.4982164 20.4301075 13.4982164 27.3763441 0 27.3763441"></polygon>
                            <polygon id="Rectangle" fill="#B8B887" points="5.31747919 1.07083963 6.14307039 0 7.77961562 0 8.58977408 1.07083963 8.58977408 23.6600528 8.20083806 24.5533421 5.76440359 24.5533421 5.31747919 23.6600528"></polygon>
                            <polygon id="Rectangle" fill="#ACAC7F" points="6.95362663 0 7.77170036 0 8.58977408 1.07259895 8.58977408 23.6989247 6.95362663 23.6989247"></polygon>
                        </g>
                        <g id="Group-2" transform="translate(36.813317, 0.000000)">
                            <polygon id="Rectangle" fill="#3F3F3F" points="1.63614744 29.0107527 0 29.0107527 0 27.3763441 13.4982164 27.3763441 13.4982164 29.0201445 11.862069 29.0201445 11.862069 31.0537634 1.63614744 31.0537634"></polygon>
                            <polygon id="Rectangle" fill="#313131" points="1.63614744 18.7956989 11.862069 18.7956989 11.862069 29.0107527 1.63614744 29.0107527"></polygon>
                            <polygon id="Rectangle" fill="#313131" points="0 20.4301075 13.4982164 20.4301075 13.4982164 27.3763441 0 27.3763441"></polygon>
                            <polygon id="Rectangle" fill="#B8B887" points="5.31747919 1.07083963 6.14307039 0 7.77961562 0 8.58977408 1.07083963 8.58977408 23.6600528 8.20083806 24.5533421 5.76440359 24.5533421 5.31747919 23.6600528"></polygon>
                            <polygon id="Rectangle" fill="#ACAC7F" points="6.95362663 0 7.77170036 0 8.58977408 1.07259895 8.58977408 23.6989247 6.95362663 23.6989247"></polygon>
                        </g>
                        <g id="Group-2" transform="translate(49.084423, 0.000000)">
                            <polygon id="Rectangle" fill="#3F3F3F" points="1.63614744 29.0107527 0 29.0107527 0 27.3763441 13.4982164 27.3763441 13.4982164 29.0201445 11.862069 29.0201445 11.862069 31.0537634 1.63614744 31.0537634"></polygon>
                            <polygon id="Rectangle" fill="#313131" points="1.63614744 18.7956989 11.862069 18.7956989 11.862069 29.0107527 1.63614744 29.0107527"></polygon>
                            <polygon id="Rectangle" fill="#313131" points="0 20.4301075 13.4982164 20.4301075 13.4982164 27.3763441 0 27.3763441"></polygon>
                            <polygon id="Rectangle" fill="#B8B887" points="5.31747919 1.07083963 6.14307039 0 7.77961562 0 8.58977408 1.07083963 8.58977408 23.6600528 8.20083806 24.5533421 5.76440359 24.5533421 5.31747919 23.6600528"></polygon>
                            <polygon id="Rectangle" fill="#ACAC7F" points="6.95362663 0 7.77170036 0 8.58977408 1.07259895 8.58977408 23.6989247 6.95362663 23.6989247"></polygon>
                        </g>
                        <g id="Group-2">
                            <polygon id="Rectangle" fill="#3F3F3F" points="1.63614744 29.0107527 0 29.0107527 0 27.3763441 13.4982164 27.3763441 13.4982164 29.0201445 11.862069 29.0201445 11.862069 31.0537634 1.63614744 31.0537634"></polygon>
                            <polygon id="Rectangle" fill="#313131" points="1.63614744 18.7956989 11.862069 18.7956989 11.862069 29.0107527 1.63614744 29.0107527"></polygon>
                            <polygon id="Rectangle" fill="#313131" points="0 20.4301075 13.4982164 20.4301075 13.4982164 27.3763441 0 27.3763441"></polygon>
                            <polygon id="Rectangle" fill="#B8B887" points="5.31747919 1.07083963 6.14307039 0 7.77961562 0 8.58977408 1.07083963 8.58977408 23.6600528 8.20083806 24.5533421 5.76440359 24.5533421 5.31747919 23.6600528"></polygon>
                            <polygon id="Rectangle" fill="#ACAC7F" points="6.95362663 0 7.77170036 0 8.58977408 1.07259895 8.58977408 23.6989247 6.95362663 23.6989247"></polygon>
                        </g>
                    </g>
                    <path d="M333.365042,13.483871 L335.819263,13.483871 C339.659645,13.483871 342.772889,16.593807 342.772889,20.4301075 L342.772889,169.978495 C342.772889,173.814795 339.659645,176.924731 335.819263,176.924731 L333.365042,176.924731 L333.365042,13.483871 Z" id="Rectangle" fill="#E8E3E3"></path>
                    <polygon id="Rectangle" fill="#E8E3E3" points="333.365042 39.2258065 341.136742 39.2258065 341.136742 41.2688172 333.365042 41.2688172"></polygon>
                    <polygon id="Rectangle" fill="#E8E3E3" points="333.365042 149.139785 341.136742 149.139785 341.136742 151.182796 333.365042 151.182796"></polygon>
                    <path d="M333.365042,15.1182796 L335.001189,15.1182796 C338.389761,15.1182796 341.136742,17.8623408 341.136742,21.2473118 L341.136742,169.16129 C341.136742,172.546261 338.389761,175.290323 335.001189,175.290323 L333.365042,175.290323 L333.365042,15.1182796 Z" id="Rectangle" fill="#E8E3E3"></path>
                    <polygon id="Rectangle" fill="#E8E3E3" points="333.365042 41.2688172 344 41.2688172 344 149.139785 333.365042 149.139785"></polygon>
                    <polygon id="Rectangle" fill="#3F3F3F" points="232.332937 16.344086 252.78478 16.344086 252.78478 28.1935484 232.332937 28.1935484"></polygon>
                    <polygon id="Rectangle" fill="#313131" points="232.332937 13.8924731 252.78478 13.8924731 252.78478 25.7419355 232.332937 25.7419355"></polygon>
                </g>
                <g id="Green-Wire-Big" transform="translate(37.000000, 152.000000)">
                    <path d="M9.8,-8.8 L20.740691,-8.8 C20.740691,20.0012239 20.740691,34.5745655 20.740691,34.9200247 C20.740691,40.1537185 23.3389434,44.2707755 28.3389434,44.2707755 C28.8251968,44.2707755 37.645549,44.2707755 54.8,44.2707755 L54.8,54.8 C34.0650615,54.6 23.576029,54.5 23.3329025,54.5 C15.3,54.5 9.8,48.6666031 9.8,39.4019994 C9.8,39.0158377 9.8,22.9485045 9.8,-8.8 Z" id="Rectangle" stroke="#FFFFFF" stroke-width="0.5" fill="#000000" transform="translate(32.300000, 23.000000) rotate(90.000000) translate(-32.300000, -23.000000) "></path>
                    <g id="Top-Wire" transform="translate(0.800000, 45.100000)">
                        <rect id="Rectangle" fill="#C4C4C4" x="0.9" y="0.1" width="8" height="6"></rect>
                        <rect id="Rectangle" fill="#F2F2F2" x="1.9" y="0.1" width="1.5" height="6"></rect>
                    </g>
                    <g id="Top-Wire" transform="translate(67.700000, 5.600000) scale(1, -1) rotate(-90.000000) translate(-67.700000, -5.600000) translate(63.200000, 2.100000)">
                        <rect id="Rectangle" fill="#C4C4C4" x="0.9" y="0.1" width="8" height="6"></rect>
                        <rect id="Rectangle" fill="#F2F2F2" x="1.9" y="0.1" width="1.5" height="6"></rect>
                    </g>
                    <text id="B" font-family="Lato-BoldItalic, Lato" font-size="8.03681" font-style="italic" font-weight="bold" fill="#FFFFFF">
                        <tspan x="43.588957" y="9">B</tspan>
                    </text>
                </g>
                <g id="Green-Wire-Big" transform="translate(18.000000, 129.000000)">
                    <path d="M8.05,-7.05 L18.990691,-7.05 C18.990691,35.6045408 18.990691,57.1045408 18.990691,57.45 C18.990691,61.9135611 22.6766837,65.4207755 27.7923011,65.4207755 C28.2785545,65.4207755 44.3311208,65.4207755 75.95,65.4207755 L75.95,75.95 C44.0879938,75.75 28.0354275,75.65 27.7923011,75.65 C14.6887645,75.65 8.05,69.3980871 8.05,57.45 C8.05,57.0640382 8.05,35.5640382 8.05,-7.05 Z" id="Rectangle" stroke="#FFFFFF" stroke-width="0.5" fill="#D84B4B" transform="translate(42.000000, 34.450000) rotate(90.000000) translate(-42.000000, -34.450000) "></path>
                    <g id="Top-Wire" transform="translate(0.800000, 68.100000)">
                        <rect id="Rectangle" fill="#C4C4C4" x="0.9" y="0.1" width="8" height="6"></rect>
                        <rect id="Rectangle" fill="#F2F2F2" x="1.9" y="0.1" width="1.5" height="6"></rect>
                    </g>
                    <g id="Top-Wire" transform="translate(86.700000, 5.600000) scale(1, -1) rotate(-90.000000) translate(-86.700000, -5.600000) translate(82.200000, 2.100000)">
                        <rect id="Rectangle" fill="#C4C4C4" x="0.9" y="0.1" width="8" height="6"></rect>
                        <rect id="Rectangle" fill="#F2F2F2" x="1.9" y="0.1" width="1.5" height="6"></rect>
                    </g>
                    <text id="R" font-family="Lato-BoldItalic, Lato" font-size="8.03681" font-style="italic" font-weight="bold" fill="#FFFFFF">
                        <tspan x="62.5708742" y="9">R</tspan>
                    </text>
                </g>
                <g id="Black-Wire-Big" transform="translate(0.000000, 101.000000)">
                    <path d="M6.05,-0.05 L16.990691,-0.05 C16.990691,48.1237909 16.990691,72.383416 16.990691,72.7288752 C16.990691,83.1567679 26.6666233,91.4207755 34.7055259,91.4207755 C35.1917794,91.4207755 55.9399374,91.4207755 96.95,91.4207755 L96.95,101.95 C54.9878167,101.95 33.8851618,101.95 33.6420353,101.95 C19.0834975,101.95 6.05,88.4415628 6.05,72.7288752 C6.05,72.3430078 6.05,48.0833827 6.05,-0.05 Z" id="Rectangle" stroke="#FFFFFF" stroke-width="0.5" fill="#E4E4E4" transform="translate(51.500000, 50.950000) rotate(90.000000) translate(-51.500000, -50.950000) "></path>
                    <g id="Top-Wire" transform="translate(0.800000, 96.100000)">
                        <rect id="Rectangle" fill="#C4C4C4" x="0.9" y="0.1" width="8" height="6"></rect>
                        <rect id="Rectangle" fill="#F2F2F2" x="1.9" y="0.1" width="1.5" height="6"></rect>
                    </g>
                    <g id="Top-Wire" transform="translate(105.700000, 10.600000) scale(1, -1) rotate(-90.000000) translate(-105.700000, -10.600000) translate(101.200000, 7.100000)">
                        <rect id="Rectangle" fill="#C4C4C4" x="0.9" y="0.1" width="8" height="6"></rect>
                        <rect id="Rectangle" fill="#F2F2F2" x="1.9" y="0.1" width="1.5" height="6"></rect>
                    </g>
                    <g id="Group-2" transform="translate(74.000000, 0.000000)">
                        <path d="M9.41645082,19.4025102 C4.28296407,19.4025102 0.121450817,15.240997 0.121450817,10.1075102 C0.121450817,4.97402346 4.28296407,0.812510206 9.41645082,0.812510206 C14.5499376,0.812510206 18.7114508,4.97402346 18.7114508,10.1075102 C18.7114508,15.240997 14.5499376,19.4025102 9.41645082,19.4025102 Z" id="Oval" fill="#FFFFFF" fill-rule="nonzero"></path>
                        <mask id="mask-2" fill="white">
                            <use xlink:href="#path-1"></use>
                        </mask>
                        <use id="Combined-Shape" fill="#E4E4E4" fill-rule="nonzero" xlink:href="#path-1"></use>
                    </g>
                </g>
            </g>
        </g>
    </g>
</svg>