<?xml version="1.0" encoding="UTF-8"?>
<svg width="244px" height="331px" viewBox="0 0 244 331" version="1.1" xmlns="http://www.w3.org/2000/svg" xmlns:xlink="http://www.w3.org/1999/xlink">
    <title>Reader/Mounting Plate</title>
    <g id="Product-Artwork" stroke="none" stroke-width="1" fill="none" fill-rule="evenodd">
        <g id="RR-Wiring-Guide" transform="translate(-92.000000, -244.000000)">
            <g id="Reader/Mounting-Plate" transform="translate(92.000000, 244.000000)">
                <g id="Mounting-Plate-Basic">
                    <g id="Mounting-Plate-A">
                        <path d="M223.645014,0.114930556 C234.823257,0.114930556 243.885014,9.17668722 243.885014,20.3549306 L243.885014,277.085347 C243.885014,288.263591 234.823257,297.325347 223.645014,297.325347 L175.949961,297.325275 C175.547127,296.471195 173.888619,295.83125 171.903864,295.83125 C169.91911,295.83125 168.260601,296.471195 167.857768,297.325275 L69.4730521,297.325275 C69.0702188,296.471195 67.4117104,295.83125 65.4269557,295.83125 C63.442201,295.83125 61.7836926,296.471195 61.3808593,297.325275 L20.3549859,297.325347 C9.17674253,297.325347 0.114985862,288.263591 0.114985862,277.085347 L0.114985862,20.3549306 C0.114985862,9.17668722 9.17674253,0.114930556 20.3549859,0.114930556 L223.645014,0.114930556 Z" id="Combined-Shape" fill="#E5E5E5"></path>
                        <rect id="Inner" fill="#FDFDFD" x="5.05937795" y="5.05694444" width="233.881244" height="287.326389" rx="14.03"></rect>
                    </g>
                    <g id="Tamper-Pin-Open" transform="translate(98.887842, 287.326389)">
                        <path d="M38.6352498,0 L44.1545712,0 C45.4246699,0 46.4542884,1.02912325 46.4542884,2.29861111 L46.4542884,10.1138889 L36.3355325,10.1138889 L36.3355325,2.29861111 C36.3355325,1.02912325 37.365151,0 38.6352498,0 Z" id="Rectangle" fill="#FFFFFF"></path>
                        <path d="M44.1545712,0 C45.4246699,0 46.4542884,1.02912325 46.4542884,2.29861111 L46.4542884,10.1138889 L36.3355325,10.1138889 L36.3355325,2.29861111 C36.3355325,1.02912325 37.365151,0 38.6352498,0 L44.1545712,0 Z M44.1545712,0.919444444 L38.6352498,0.919444444 C37.89051,0.919444444 37.2835744,1.50917034 37.2563711,2.24690655 L37.2554194,2.29861111 L37.2554194,9.19444444 L45.5344015,9.19444444 L45.5344015,2.29861111 C45.5344015,1.55422959 44.9443918,0.947585935 44.2063006,0.920395718 L44.1545712,0.919444444 Z" id="Rectangle" fill="#E5E5E5" fill-rule="nonzero"></path>
                        <path d="M2.29971725,0 L8.04901037,0 C9.31910913,0 10.3487276,1.02912325 10.3487276,2.29861111 L10.3487276,10.1138889 L0,10.1138889 L0,2.29861111 C0,1.02912325 1.02961848,0 2.29971725,0 Z" id="Rectangle" fill="#FFFFFF"></path>
                        <path d="M8.04901037,0 C9.31910913,0 10.3487276,1.02912325 10.3487276,2.29861111 L10.3487276,10.1138889 L0,10.1138889 L0,2.29861111 C0,1.02912325 1.02961848,0 2.29971725,0 L8.04901037,0 Z M8.04901037,0.919444444 L2.29971725,0.919444444 C1.55497752,0.919444444 0.948041932,1.50917034 0.920838631,2.24690655 L0.919886899,2.29861111 L0.919886899,9.19444444 L9.42884072,9.19444444 L9.42884072,2.29861111 C9.42884072,1.55422959 8.83883103,0.947585935 8.10073981,0.920395718 L8.04901037,0.919444444 Z" id="Rectangle" fill="#E5E5E5" fill-rule="nonzero"></path>
                        <path d="M36.3355325,0 L44.8444863,0 C45.7335555,0 46.4542884,0.720386274 46.4542884,1.60902778 L46.4542884,3.21805556 L36.3355325,3.21805556 L36.3355325,0 Z" id="Rectangle" fill="#E5E5E5"></path>
                        <path d="M1.60980207,0 L10.3487276,0 L10.3487276,3.21805556 L0,3.21805556 L0,1.60902778 C0,0.720386274 0.720732938,0 1.60980207,0 Z" id="Rectangle" fill="#E5E5E5"></path>
                        <polygon id="Rectangle" fill="#FFFFFF" points="10.3487276 0 36.3355325 0 36.3355325 10.1138889 10.3487276 10.1138889"></polygon>
                        <polygon id="Rectangle" fill="#FFFFFF" points="16.5579642 2.75833333 30.3562677 2.75833333 30.3562677 22.75625 16.5579642 22.75625"></polygon>
                        <path d="M30.3562677,2.75833333 L30.3562677,22.75625 L16.5579642,22.75625 L16.5579642,2.75833333 L30.3562677,2.75833333 Z M29.8963242,3.21805556 L17.0179076,3.21805556 L17.0179076,22.2965278 L29.8963242,22.2965278 L29.8963242,3.21805556 Z" id="Rectangle" fill="#E5E5E5" fill-rule="nonzero"></path>
                        <polygon id="Line-5" fill="#E5E5E5" fill-rule="nonzero" points="37.1404336 2.64340278 37.1404336 3.10340278 9.7737983 3.10340278 9.7737983 2.64340278"></polygon>
                        <path d="M12.6484449,16.55 L33.5758718,16.55 C34.8459706,16.55 35.8755891,17.5791232 35.8755891,18.8486111 L35.8755891,26.6638889 L10.3487276,26.6638889 L10.3487276,18.8486111 C10.3487276,17.5791232 11.3783461,16.55 12.6484449,16.55 Z" id="Rectangle" fill="#FFFFFF"></path>
                        <path d="M33.5758718,16.55 C34.8459706,16.55 35.8755891,17.5791232 35.8755891,18.8486111 L35.8755891,26.6638889 L10.3487276,26.6638889 L10.3487276,18.8486111 C10.3487276,17.5791232 11.3783461,16.55 12.6484449,16.55 L33.5758718,16.55 Z M33.5758718,17.4694444 L12.6484449,17.4694444 C11.9037051,17.4694444 11.2967695,18.0591703 11.2695662,18.7969066 L11.2686145,18.8486111 L11.2686145,25.7444444 L34.9557022,25.7444444 L34.9557022,18.8486111 C34.9557022,18.1042296 34.3656925,17.4975859 33.6276013,17.4703957 L33.5758718,17.4694444 Z" id="Rectangle" fill="#E5E5E5" fill-rule="nonzero"></path>
                        <polygon id="Rectangle" fill="#E5E5E5" points="10.3487276 16.55 35.8755891 16.55 35.8755891 19.7680556 10.3487276 19.7680556"></polygon>
                    </g>
                </g>
                <g id="Exposed-Plate" transform="translate(10.000000, 37.000000)">
                    <g id="Mounting-Plate-Elements">
                        <g id="Outer-Circle">
                            <ellipse id="Oval-9" fill="#9A9494" opacity="0.315160779" cx="112.226202" cy="112.172222" rx="112.226202" ry="112.172222"></ellipse>
                            <ellipse id="Oval-9" stroke="#979797" stroke-width="1.15" fill="#F8F8F8" cx="112.111216" cy="112.057292" rx="103.027262" ry="102.977431"></ellipse>
                        </g>
                        <g id="Wire-Ingress" transform="translate(23.687088, 82.750000)" stroke="#979797" stroke-width="1.38">
                            <path d="M42.1997267,0.69 L42.1997267,71.0665675 L16.5620856,71.4817084 C9.53634979,64.3306391 4.86064544,54.8885913 2.51553387,43.1666088 C0.158728014,31.3861727 0.137457765,17.2270584 2.43871775,0.68999999 L2.43871775,0.68999999 L42.1997267,0.69 Z"></path>
                            <path d="M176.421947,0.69 L176.421947,71.0665675 L150.784306,71.4817084 C143.75857,64.3306391 139.082866,54.8885913 136.737754,43.1666088 C134.380948,31.3861727 134.359678,17.2270585 136.660938,0.690000017 L136.660938,0.690000017 L176.421947,0.69 Z" transform="translate(155.687400, 36.088194) scale(-1, 1) translate(-155.687400, -36.088194) "></path>
                        </g>
                        <g id="Mounting-Screw-Hole" transform="translate(91.528746, 19.768056)">
                            <rect id="Outer" stroke="#B4B3B3" stroke-width="1.84" fill="#F9F9F9" x="0.92" y="0.92" width="39.5549105" height="21.6058333" rx="10.8029167"></rect>
                            <rect id="Inner" stroke="#CACACA" stroke-width="0.92" fill="#FFFFFF" x="8.04906692" y="6.66625" width="25.2967766" height="10.1133333" rx="5.05666667"></rect>
                        </g>
                        <g id="Mounting-Screw-Hole" transform="translate(91.528746, 183.888889)">
                            <rect id="Outer" stroke="#B4B3B3" stroke-width="1.84" fill="#F9F9F9" x="0.92" y="0.92" width="39.5549105" height="21.6058333" rx="10.8029167"></rect>
                            <rect id="Inner" stroke="#CACACA" stroke-width="0.92" fill="#FFFFFF" x="8.04906692" y="6.66625" width="25.2967766" height="10.1133333" rx="5.05666667"></rect>
                        </g>
                        <g id="Mounting-Snap-Areas" transform="translate(8.504293, 30.277346)" fill="#FFFFFF">
                            <g id="Group" transform="translate(26.446748, 141.939236)" stroke="#D3D3D3" stroke-width="0.92">
                                <g id="Snap-Area-BL" transform="translate(9.198869, 8.275000) scale(1, -1) rotate(-46.000000) translate(-9.198869, -8.275000) ">
                                    <rect id="Rectangle" x="0.46" y="6.43638889" width="17.477738" height="3.67722222" rx="1.15"></rect>
                                </g>
                            </g>
                            <g id="Group" transform="translate(161.674783, 141.084112)" stroke="#D3D3D3" stroke-width="0.92">
                                <g id="Snap-Area-BR" transform="translate(9.198869, 8.275000) scale(1, -1) rotate(46.000000) translate(-9.198869, -8.275000) ">
                                    <rect id="Rectangle" x="0.46" y="6.43638889" width="17.477738" height="3.67722222" rx="1.15"></rect>
                                </g>
                            </g>
                            <g id="Group" transform="translate(161.444812, 4.201821)" stroke="#D3D3D3" stroke-width="0.92">
                                <g id="Snap-Area-TR" transform="translate(9.198869, 8.275000) rotate(46.000000) translate(-9.198869, -8.275000) ">
                                    <rect id="Rectangle" x="0.46" y="6.43638889" width="17.477738" height="3.67722222" rx="1.15"></rect>
                                </g>
                            </g>
                            <g id="Group" transform="translate(26.216777, 5.056944)" stroke="#D3D3D3" stroke-width="0.92">
                                <g id="Snap-Area-TL" transform="translate(9.198869, 8.275000) rotate(-46.000000) translate(-9.198869, -8.275000) ">
                                    <rect id="Rectangle" x="0.46" y="6.43638889" width="17.477738" height="3.67722222" rx="1.15"></rect>
                                </g>
                            </g>
                            <g id="Group" transform="translate(0.065893, 69.252515)" stroke="#BCBABA" stroke-width="1.15">
                                <g id="Mounting-Big-Snap">
                                    <path d="M8.56256618,0.575 L9.13756618,23.9048611 L1.79178101,24.4798611 C0.789931436,19.2120503 0.575,15.0575232 0.575,11.4930556 C0.575,8.01631149 0.779641281,4.54613238 1.18891031,1.08252571 L1.18891031,1.08252571 L8.56256618,0.575 Z" id="Rectangle"></path>
                                </g>
                            </g>
                            <g id="Group" transform="translate(197.320401, 69.482376)" stroke="#BCBABA" stroke-width="1.15">
                                <g id="Mounting-Big-Snap-Copy" transform="translate(4.944392, 12.527431) scale(-1, 1) translate(-4.944392, -12.527431) ">
                                    <path d="M8.56256618,0.575 L9.13756618,23.9048611 L1.79178101,24.4798611 C0.789931436,19.2120503 0.575,15.0575232 0.575,11.4930556 C0.575,8.01631149 0.779641281,4.54613238 1.18891031,1.08252571 L1.18891031,1.08252571 L8.56256618,0.575 Z" id="Rectangle"></path>
                                </g>
                            </g>
                        </g>
                        <ellipse id="Oval-9" stroke="#979797" stroke-width="1.15" cx="112.111216" cy="112.057292" rx="103.027262" ry="102.977431"></ellipse>
                    </g>
                    <g id="Level" opacity="0.460286458" transform="translate(95.438266, 137.227083)">
                        <rect id="Outer" stroke="#20ABDD" stroke-width="1.38" fill="#6FCDEF" x="0.69" y="0.69" width="32.1958718" height="12.1818056" rx="1.84"></rect>
                        <path d="M16.7879359,8.275 C18.8200939,8.275 20.4674835,6.36488488 20.4674835,4.00863847 C20.4674835,1.65239206 18.8154331,1.37916667 16.783275,1.37916667 C14.751117,1.37916667 13.1083883,1.65239206 13.1083883,4.00863847 C13.1083883,6.36488488 14.7557779,8.275 16.7879359,8.275 Z" id="Oval" fill="#C8E4FE"></path>
                        <path d="M16.7879359,5.47356771 C18.6930841,5.47356771 20.2375118,4.41228436 20.2375118,3.103125 C20.2375118,1.79396564 18.6930841,1.37916667 16.7879359,1.37916667 C14.8827878,1.37916667 13.33836,1.79396564 13.33836,3.103125 C13.33836,4.41228436 14.8827878,5.47356771 16.7879359,5.47356771 Z" id="Oval-Copy" fill="#E4EBF3"></path>
                        <rect id="Rectangle" fill="#0198D0" x="10.1187559" y="1.37916667" width="1" height="10.8034722"></rect>
                        <rect id="Rectangle-Copy" fill="#0198D0" x="22.537229" y="1.37916667" width="1" height="10.8034722"></rect>
                        <path d="M23.6870877,0 L26.6767201,0 L26.6767201,2.06847222 C26.6767201,2.32252321 26.4707711,2.52847222 26.2167201,2.52847222 L24.1470877,2.52847222 C23.8930367,2.52847222 23.6870877,2.32252321 23.6870877,2.06847222 L23.6870877,0 L23.6870877,0 Z" id="Rectangle" fill="#F8F8F8"></path>
                        <path d="M6.66918002,0 L9.65881244,0 L9.65881244,2.06847222 C9.65881244,2.32252321 9.45286343,2.52847222 9.19881244,2.52847222 L7.12918002,2.52847222 C6.87512903,2.52847222 6.66918002,2.32252321 6.66918002,2.06847222 L6.66918002,0 L6.66918002,0 Z" id="Rectangle-Copy-2" fill="#F8F8F8"></path>
                        <path d="M6.66918002,11.0333333 L9.65881244,11.0333333 L9.65881244,13.1018056 C9.65881244,13.3558565 9.45286343,13.5618056 9.19881244,13.5618056 L7.12918002,13.5618056 C6.87512903,13.5618056 6.66918002,13.3558565 6.66918002,13.1018056 L6.66918002,11.0333333 L6.66918002,11.0333333 Z" id="Rectangle-Copy-3" fill="#F8F8F8" transform="translate(8.163996, 12.297569) scale(1, -1) translate(-8.163996, -12.297569) "></path>
                        <path d="M23.6870877,11.0333333 L26.6767201,11.0333333 L26.6767201,13.1018056 C26.6767201,13.3558565 26.4707711,13.5618056 26.2167201,13.5618056 L24.1470877,13.5618056 C23.8930367,13.5618056 23.6870877,13.3558565 23.6870877,13.1018056 L23.6870877,11.0333333 L23.6870877,11.0333333 Z" id="Rectangle-Copy-4" fill="#F8F8F8" transform="translate(25.181904, 12.297569) scale(1, -1) translate(-25.181904, -12.297569) "></path>
                    </g>
                    <g id="Terminal-Holder-Ridge" transform="translate(66.691800, 49.420139)" fill="#D8D8D8">
                        <rect id="Rectangle" x="0" y="0" width="91.2987747" height="3.90763889" rx="0.92"></rect>
                        <rect id="Rectangle" x="0" y="25.9743056" width="91.2987747" height="3.90763889" rx="0.92"></rect>
                    </g>
                    <g id="Group-4" transform="translate(30.646592, 75.000000)">
                        <g id="Green-Wire" transform="translate(1.353408, 0.000000)">
                            <g id="Wire-1" transform="translate(23.000000, 41.000000) scale(-1, 1) translate(-23.000000, -41.000000) ">
                                <g id="Wire-Focused---Green" transform="translate(0.000000, 2.451429)" fill="#000000" stroke="#FFFFFF" stroke-width="0.884">
                                    <g id="Rectangle">
                                        <path d="M1.36424205e-12,0 L6.61607143,0 C6.61607143,15.0748301 6.61607143,22.6865308 6.61607143,22.8351022 C6.61607143,24.9376985 8.07925087,26.7428571 9.97549331,26.7428571 C10.2628143,26.7428571 31.3919563,26.7428571 31.7735776,26.7428571 C41.763937,26.7428571 46,33.5853194 46,40.2894758 C46,40.535491 46,50.7892174 46,71.0506548 L38.4571007,79 C38.4571007,54.9326856 38.4571007,42.5322094 38.4571007,41.7985714 C38.4571007,35.0485714 35.9836434,33.5853194 31.7735776,33.5853194 C31.0152266,33.5853194 10.0532363,33.5853194 9.97549331,33.5853194 C4.0776781,33.5853194 1.36424205e-12,29.1875255 1.36424205e-12,21.4571105 C1.36424205e-12,21.3085404 1.36424205e-12,14.1561702 1.36424205e-12,0 Z"></path>
                                    </g>
                                </g>
                                <g id="Top-Tip" transform="translate(1.323214, 0.111429)">
                                    <rect id="Rectangle" fill="#C4C4C4" x="0" y="0.111428571" width="3.96964286" height="2.67428571"></rect>
                                    <rect id="Rectangle" fill="#F2F2F2" x="0.441071429" y="0.557142857" width="1" height="2.22857143"></rect>
                                </g>
                            </g>
                            <text id="B" font-family="Lato-BoldItalic, Lato" font-size="5.61" font-style="italic" font-weight="bold" fill="#FFFFFF">
                                <tspan x="40.817" y="12.8294118">B</tspan>
                            </text>
                        </g>
                        <g id="Black-Wire" transform="translate(22.353408, 0.000000)">
                            <g id="Wire-1" transform="translate(23.500000, 40.500000) scale(-1, 1) translate(-23.500000, -40.500000) ">
                                <g id="Wire-Focused---Green" transform="translate(0.000000, 2.451429)" fill="#4AA346" stroke="#FFFFFF" stroke-width="0.884">
                                    <g id="Rectangle">
                                        <path d="M4.54747351e-13,0 L6.61607143,0 C6.61607143,19.4216483 6.61607143,29.2067582 6.61607143,29.3553296 C6.61607143,39 9.92096753,44.7428571 18.3050489,44.7428571 C18.5923699,44.7428571 35.7714251,44.7428571 36.1530465,44.7428571 C42.4249136,44.7428571 47,47.7304017 47,56.0972484 C47,56.3432636 47,63.3277324 47,77.0506548 L39.4571007,77 C39.4571007,63.7984702 39.4571007,56.8308864 39.4571007,56.0972484 C39.4571007,51.4285714 37.8798419,51.4285714 36.5678192,51.4285714 C35.8094682,51.4285714 18.3827919,51.0485714 18.3050489,51.0485714 C3.79708406,51.0485714 4.54747351e-13,42.1220291 4.54747351e-13,26.2788052 C4.54747351e-13,26.130235 4.54747351e-13,17.3706333 4.54747351e-13,0 Z"></path>
                                    </g>
                                </g>
                                <g id="Top-Tip" transform="translate(1.323214, 0.111429)">
                                    <rect id="Rectangle" fill="#C4C4C4" x="0" y="0.111428571" width="3.96964286" height="2.67428571"></rect>
                                    <rect id="Rectangle" fill="#F2F2F2" x="0.441071429" y="0.557142857" width="1" height="2.22857143"></rect>
                                </g>
                            </g>
                            <text id="G" font-family="Lato-BoldItalic, Lato" font-size="5.61" font-style="italic" font-weight="bold" fill="#FFFFFF">
                                <tspan x="41.6388825" y="13">G</tspan>
                            </text>
                        </g>
                        <g id="Red-Layer" transform="translate(11.353408, 0.000000)">
                            <g id="Wire-1" transform="translate(23.500000, 41.500000) scale(-1, 1) translate(-23.500000, -41.500000) ">
                                <g id="Wire-Focused---Green" transform="translate(0.000000, 2.451429)" fill="#E3515F" stroke="#FFFFFF" stroke-width="0.884">
                                    <g id="Rectangle">
                                        <path d="M0,0 L6.61607143,0 C6.61607143,17.8824138 6.61607143,26.8979065 6.61607143,27.0464779 C6.61607143,35.7428571 10.5874313,35.7428571 13.1836611,35.7428571 C13.470982,35.7428571 35.6183786,35.7428571 36,35.7428571 C44.3125577,35.7428571 47,40 47,49.077229 C47,49.3232442 47,59.3143861 47,79.0506548 L39.4571007,79 C39.4571007,58.489167 39.4571007,47.8669316 39.4571007,47.1332937 C39.4571007,44.2327177 39.0755267,42.4097906 36.7810852,42.4097906 C36.0227342,42.4097906 13.2614041,42.1634665 13.1836611,42.1634665 C4.23521606,42.1634665 0,38.0485714 0,24.0263903 C0,23.8778199 0,15.8690232 0,0 Z"></path>
                                    </g>
                                </g>
                                <g id="Top-Tip" transform="translate(1.323214, 0.111429)">
                                    <rect id="Rectangle" fill="#C4C4C4" x="0" y="0.111428571" width="3.96964286" height="2.67428571"></rect>
                                    <rect id="Rectangle" fill="#F2F2F2" x="0.441071429" y="0.557142857" width="1" height="2.22857143"></rect>
                                </g>
                            </g>
                            <text id="R" font-family="Lato-BoldItalic, Lato" font-size="5.61" font-style="italic" font-weight="bold" fill="#FFFFFF">
                                <tspan x="41.8043775" y="13">R</tspan>
                            </text>
                        </g>
                        <g id="Group-2" transform="translate(0.000000, 65.555398)">
                            <path d="M0.256287737,0 C1.29847456,3.36127889 8.43905185,12.4628276 9.5398249,13.6676647" id="Path" stroke="#979797" stroke-width="1.36"></path>
                            <line x1="9.35340817" y1="13.4446016" x2="34.3534082" y2="13.4446016" id="Line" stroke="#979797" stroke-width="2" stroke-linecap="square"></line>
                            <path d="M4.54747351e-13,1.21140868 L1,20.763241 L35.9302225,20.763241 L35.9302225,13.946685 C22.6436602,14.2295553 13.7732919,14.3709905 9.31911767,14.3709905 C6.74551051,11.5566293 3.63913795,7.17010203 4.54747351e-13,1.21140868 Z" id="Path-2" fill="#F8F8F8"></path>
                        </g>
                        <g id="Group-2" transform="translate(145.500000, 75.055398) scale(-1, 1) translate(-145.500000, -75.055398) translate(127.000000, 63.555398)">
                            <path d="M0.373736867,0.583987552 C1.41592369,3.94526644 9.43905185,14.4628276 10.5398249,15.6676647" id="Path" stroke="#979797" stroke-width="1.4"></path>
                            <line x1="10.3534082" y1="15.4446016" x2="35.3534082" y2="15.4446016" id="Line" stroke="#979797" stroke-width="2" stroke-linecap="square"></line>
                            <path d="M0.373736867,2.41743906 L2,22.763241 L36.9302225,22.763241 L36.9302225,15.946685 C23.6436602,16.2295553 14.7732919,16.3709905 10.3191177,16.3709905 C7.74551051,13.5566293 4.43038357,8.90544549 0.373736867,2.41743906 Z" id="Path-2" fill="#F8F8F8"></path>
                        </g>
                    </g>
                    <g id="Terminal-Connector" transform="translate(68.991517, 52.408333)">
                        <g id="Group" transform="translate(37.389090, 18.359961)">
                            <g id="Tamper-Bridge" transform="translate(0.000000, 0.863998)">
                                <rect id="Rectangle" stroke="#979797" stroke-width="0.5" fill="#D8D8D8" x="0" y="0" width="1.51723845" height="4.96798933"></rect>
                                <rect id="Rectangle" stroke="#979797" stroke-width="0.5" fill="#D8D8D8" x="11.2709142" y="0" width="1.51723845" height="4.96798933"></rect>
                                <path d="M0.758619227,4.7519898 C0.758619227,6.06421555 1.82238838,7.1279847 3.13461413,7.1279847 L9.70772565,7.1279847 C11.0199514,7.1279847 12.0837205,6.06421555 12.0837205,4.7519898 L12.0837205,4.7519898 L12.0837205,4.7519898" id="Line-13" stroke="#989898" stroke-width="1.083875" stroke-linecap="square"></path>
                                <path d="M0.704432139,5.39998841 C0.704432139,6.35433441 1.47808243,7.1279847 2.43242843,7.1279847 L10.3015372,7.1279847 C11.2558832,7.1279847 12.0295335,6.35433441 12.0295335,5.39998841 L12.0295335,5.39998841 L12.0295335,5.39998841" id="Line-13" stroke="#4F4F4F" stroke-width="2.16775" stroke-linecap="square"></path>
                            </g>
                        </g>
                        <g id="Block">
                            <rect id="Terminal-Connector" fill="#D8D8D8" x="0" y="0" width="86.6993402" height="24.8399467"></rect>
                            <path d="M0.8671,0 L85.8322402,0 C86.3111264,7.56808355e-15 86.6993402,0.388213893 86.6993402,0.8671 L86.6993402,10.3679777 L86.6993402,10.3679777 L0,10.3679777 L0,0.8671 C-5.86466338e-17,0.388213893 0.388213893,5.3205916e-16 0.8671,0 Z" id="Rectangle" fill="#323232"></path>
                            <path d="M0,10.3679777 L86.6993402,10.3679777 L86.6993402,23.9728467 C86.6993402,24.4517328 86.3111264,24.8399467 85.8322402,24.8399467 L0.8671,24.8399467 C0.388213893,24.8399467 7.24780449e-16,24.4517328 0,23.9728467 L0,10.3679777 L0,10.3679777 Z" id="Rectangle" fill="#4A4A4A"></path>
                        </g>
                        <g id="Group" transform="translate(70.443214, 1.727996)">
                            <g id="Screw" transform="translate(11.050411, 11.110125) rotate(43.000000) translate(-11.050411, -11.110125) translate(3.051395, 3.138743)">
                                <ellipse id="Oval" stroke="#4A4A4A" stroke-width="3.03485" cx="4.82656151" cy="4.96470695" rx="3.25103871" ry="3.2345648"></ellipse>
                                <g id="Group" transform="translate(5.315808, 5.895399)">
                                    <ellipse id="Oval" fill="#D8D8D8" cx="4.85617084" cy="4.69135677" rx="4.66008954" ry="4.64399003"></ellipse>
                                    <polygon id="Rectangle" fill="#979797" transform="translate(4.850822, 4.843998) rotate(90.000000) translate(-4.850822, -4.843998) " points="1.07083011 3.97700507 8.63081388 3.97700507 8.63081388 5.71099187 1.07083011 5.71099187"></polygon>
                                    <polygon id="Rectangle-Copy" fill="#979797" points="1.05772586 3.98000032 8.64391813 3.98000032 8.64391813 5.70799661 1.05772586 5.70799661"></polygon>
                                </g>
                            </g>
                        </g>
                        <g id="Group" transform="translate(59.822545, 1.727996)">
                            <g id="Screw" transform="translate(11.050411, 11.110125) rotate(43.000000) translate(-11.050411, -11.110125) translate(3.051395, 3.138743)">
                                <ellipse id="Oval" stroke="#4A4A4A" stroke-width="3.03485" cx="4.82656151" cy="4.96470695" rx="3.25103871" ry="3.2345648"></ellipse>
                                <g id="Group" transform="translate(5.315808, 5.895399)">
                                    <ellipse id="Oval" fill="#D8D8D8" cx="4.85617084" cy="4.69135677" rx="4.66008954" ry="4.64399003"></ellipse>
                                    <polygon id="Rectangle" fill="#979797" transform="translate(4.850822, 4.843998) rotate(90.000000) translate(-4.850822, -4.843998) " points="1.07083011 3.97700507 8.63081388 3.97700507 8.63081388 5.71099187 1.07083011 5.71099187"></polygon>
                                    <polygon id="Rectangle-Copy" fill="#979797" points="1.05772586 3.98000032 8.64391813 3.98000032 8.64391813 5.70799661 1.05772586 5.70799661"></polygon>
                                </g>
                            </g>
                        </g>
                        <g id="Group" transform="translate(49.201876, 1.727996)">
                            <g id="Screw" transform="translate(11.050411, 11.110125) rotate(43.000000) translate(-11.050411, -11.110125) translate(3.051395, 3.138743)">
                                <ellipse id="Oval" stroke="#4A4A4A" stroke-width="3.03485" cx="4.82656151" cy="4.96470695" rx="3.25103871" ry="3.2345648"></ellipse>
                                <g id="Group" transform="translate(5.315808, 5.895399)">
                                    <ellipse id="Oval" fill="#D8D8D8" cx="4.85617084" cy="4.69135677" rx="4.66008954" ry="4.64399003"></ellipse>
                                    <polygon id="Rectangle" fill="#979797" transform="translate(4.850822, 4.843998) rotate(90.000000) translate(-4.850822, -4.843998) " points="1.07083011 3.97700507 8.63081388 3.97700507 8.63081388 5.71099187 1.07083011 5.71099187"></polygon>
                                    <polygon id="Rectangle-Copy" fill="#979797" points="1.05772586 3.98000032 8.64391813 3.98000032 8.64391813 5.70799661 1.05772586 5.70799661"></polygon>
                                </g>
                            </g>
                        </g>
                        <g id="Group" transform="translate(38.364458, 1.727996)">
                            <g id="Screw" transform="translate(11.050411, 11.110125) rotate(43.000000) translate(-11.050411, -11.110125) translate(3.051395, 3.138743)">
                                <ellipse id="Oval" stroke="#4A4A4A" stroke-width="3.03485" cx="4.82656151" cy="4.96470695" rx="3.25103871" ry="3.2345648"></ellipse>
                                <g id="Group" transform="translate(5.315808, 5.895399)">
                                    <ellipse id="Oval" fill="#D8D8D8" cx="4.85617084" cy="4.69135677" rx="4.66008954" ry="4.64399003"></ellipse>
                                    <polygon id="Rectangle" fill="#979797" transform="translate(4.850822, 4.843998) rotate(90.000000) translate(-4.850822, -4.843998) " points="1.07083011 3.97700507 8.63081388 3.97700507 8.63081388 5.71099187 1.07083011 5.71099187"></polygon>
                                    <polygon id="Rectangle-Copy" fill="#979797" points="1.05772586 3.98000032 8.64391813 3.98000032 8.64391813 5.70799661 1.05772586 5.70799661"></polygon>
                                </g>
                            </g>
                        </g>
                        <g id="Group" transform="translate(27.527041, 1.727996)">
                            <g id="Screw" transform="translate(11.050411, 11.110125) rotate(43.000000) translate(-11.050411, -11.110125) translate(3.051395, 3.138743)">
                                <ellipse id="Oval" stroke="#4A4A4A" stroke-width="3.03485" cx="4.82656151" cy="4.96470695" rx="3.25103871" ry="3.2345648"></ellipse>
                                <g id="Group" transform="translate(5.315808, 5.895399)">
                                    <ellipse id="Oval" fill="#D8D8D8" cx="4.85617084" cy="4.69135677" rx="4.66008954" ry="4.64399003"></ellipse>
                                    <polygon id="Rectangle" fill="#979797" transform="translate(4.850822, 4.843998) rotate(90.000000) translate(-4.850822, -4.843998) " points="1.07083011 3.97700507 8.63081388 3.97700507 8.63081388 5.71099187 1.07083011 5.71099187"></polygon>
                                    <polygon id="Rectangle-Copy" fill="#979797" points="1.05772586 3.98000032 8.64391813 3.98000032 8.64391813 5.70799661 1.05772586 5.70799661"></polygon>
                                </g>
                            </g>
                        </g>
                        <g id="Group" transform="translate(16.689623, 1.727996)">
                            <g id="Screw" transform="translate(11.050411, 11.110125) rotate(43.000000) translate(-11.050411, -11.110125) translate(3.051395, 3.138743)">
                                <ellipse id="Oval" stroke="#4A4A4A" stroke-width="3.03485" cx="4.82656151" cy="4.96470695" rx="3.25103871" ry="3.2345648"></ellipse>
                                <g id="Group" transform="translate(5.315808, 5.895399)">
                                    <ellipse id="Oval" fill="#D8D8D8" cx="4.85617084" cy="4.69135677" rx="4.66008954" ry="4.64399003"></ellipse>
                                    <polygon id="Rectangle" fill="#979797" transform="translate(4.850822, 4.843998) rotate(90.000000) translate(-4.850822, -4.843998) " points="1.07083011 3.97700507 8.63081388 3.97700507 8.63081388 5.71099187 1.07083011 5.71099187"></polygon>
                                    <polygon id="Rectangle-Copy" fill="#979797" points="1.05772586 3.98000032 8.64391813 3.98000032 8.64391813 5.70799661 1.05772586 5.70799661"></polygon>
                                </g>
                            </g>
                        </g>
                        <g id="Group" transform="translate(5.852205, 1.727996)">
                            <g id="Screw" transform="translate(11.050411, 11.110125) rotate(43.000000) translate(-11.050411, -11.110125) translate(3.051395, 3.138743)">
                                <ellipse id="Oval" stroke="#4A4A4A" stroke-width="3.03485" cx="4.82656151" cy="4.96470695" rx="3.25103871" ry="3.2345648"></ellipse>
                                <g id="Group" transform="translate(5.315808, 5.895399)">
                                    <ellipse id="Oval" fill="#D8D8D8" cx="4.85617084" cy="4.69135677" rx="4.66008954" ry="4.64399003"></ellipse>
                                    <polygon id="Rectangle" fill="#979797" transform="translate(4.850822, 4.843998) rotate(90.000000) translate(-4.850822, -4.843998) " points="1.07083011 3.97700507 8.63081388 3.97700507 8.63081388 5.71099187 1.07083011 5.71099187"></polygon>
                                    <polygon id="Rectangle-Copy" fill="#979797" points="1.05772586 3.98000032 8.64391813 3.98000032 8.64391813 5.70799661 1.05772586 5.70799661"></polygon>
                                </g>
                            </g>
                        </g>
                        <g id="Group" transform="translate(-4.985212, 1.727996)">
                            <g id="Screw" transform="translate(11.050411, 11.110125) rotate(43.000000) translate(-11.050411, -11.110125) translate(3.051395, 3.138743)">
                                <ellipse id="Oval" stroke="#4A4A4A" stroke-width="3.03485" cx="4.82656151" cy="4.96470695" rx="3.25103871" ry="3.2345648"></ellipse>
                                <g id="Group" transform="translate(5.315808, 5.895399)">
                                    <ellipse id="Oval" fill="#D8D8D8" cx="4.85617084" cy="4.69135677" rx="4.66008954" ry="4.64399003"></ellipse>
                                    <polygon id="Rectangle" fill="#979797" transform="translate(4.850822, 4.843998) rotate(90.000000) translate(-4.850822, -4.843998) " points="1.07083011 3.97700507 8.63081388 3.97700507 8.63081388 5.71099187 1.07083011 5.71099187"></polygon>
                                    <polygon id="Rectangle-Copy" fill="#979797" points="1.05772586 3.98000032 8.64391813 3.98000032 8.64391813 5.70799661 1.05772586 5.70799661"></polygon>
                                </g>
                            </g>
                        </g>
                        <rect id="Rectangle" fill="#4A4A4A" x="33.3459001" y="11.3442727" width="20.6974552" height="10.5421524"></rect>
                    </g>
                </g>
                <text id="Meter-1" font-family="Lato-Regular, Lato" font-size="9.03681" font-weight="normal" fill="#989898">
                    <tspan x="47.1087696" y="205">Meter 1</tspan>
                </text>
                <text id="Meter-2" font-family="Lato-Regular, Lato" font-size="9.03681" font-weight="normal" fill="#989898">
                    <tspan x="167.10877" y="205">Meter 2</tspan>
                </text>
                <circle id="Oval" stroke="#D3D3D3" stroke-width="0.5" cx="122.5" cy="149.5" r="11.5"></circle>
                <circle id="Oval" fill="#D3D3D3" cx="122.5" cy="149.5" r="8.5"></circle>
            </g>
        </g>
    </g>
</svg>
