<?xml version="1.0" encoding="UTF-8" standalone="no"?>
<!-- Created with Inkscape (http://www.inkscape.org/) -->

<svg
   xmlns:dc="http://purl.org/dc/elements/1.1/"
   xmlns:cc="http://creativecommons.org/ns#"
   xmlns:rdf="http://www.w3.org/1999/02/22-rdf-syntax-ns#"
   xmlns:svg="http://www.w3.org/2000/svg"
   xmlns="http://www.w3.org/2000/svg"
   xmlns:sodipodi="http://sodipodi.sourceforge.net/DTD/sodipodi-0.dtd"
   xmlns:inkscape="http://www.inkscape.org/namespaces/inkscape"
   width="64.497482mm"
   height="60.754971mm"
   viewBox="0 0 64.497482 60.75497"
   version="1.1"
   id="svg8"
   sodipodi:docname="NeptuneCropped.svg"
   inkscape:version="0.92.5 (2060ec1f9f, 2020-04-08)">
  <defs
     id="defs2">
    <clipPath
       clipPathUnits="userSpaceOnUse"
       id="clipPath5989">
      <rect
         id="rect5991"
         width="68.030991"
         height="60.754971"
         x="59.741211"
         y="69.569336"
         style="opacity:0.55100002;stroke-width:0.3305853" />
    </clipPath>
  </defs>
  <sodipodi:namedview
     id="base"
     pagecolor="#ffffff"
     bordercolor="#666666"
     borderopacity="1.0"
     inkscape:pageopacity="0.0"
     inkscape:pageshadow="2"
     inkscape:zoom="2.6666636"
     inkscape:cx="56.63494"
     inkscape:cy="126.70458"
     inkscape:document-units="mm"
     inkscape:current-layer="layer1"
     showgrid="false"
     inkscape:window-width="1920"
     inkscape:window-height="1025"
     inkscape:window-x="1280"
     inkscape:window-y="0"
     inkscape:window-maximized="1" />
  <metadata
     id="metadata5">
    <rdf:RDF>
      <cc:Work
         rdf:about="">
        <dc:format>image/svg+xml</dc:format>
        <dc:type
           rdf:resource="http://purl.org/dc/dcmitype/StillImage" />
        <dc:title></dc:title>
      </cc:Work>
    </rdf:RDF>
  </metadata>
  <g
     inkscape:label="Layer 1"
     inkscape:groupmode="layer"
     id="layer1"
     transform="translate(-60.7334,-69.569336)">
    <g
       id="Product-Artwork-3"
       transform="matrix(0.26458333,0,0,0.26458333,60.702977,60.410785)"
       style="opacity:1;fill:none;fill-rule:evenodd;stroke:none;stroke-width:1">
      <g
         transform="translate(-92,-244)"
         id="RR-Wiring-Guide-6">
        <g
           transform="translate(92,244)"
           id="Reader/Mounting-Plate-7">
          <g
             id="Mounting-Plate-Basic-5">
            <g
               id="Mounting-Plate-A-3">
              <path
                 id="Combined-Shape-5"
                 d="m 223.64501,0.11493056 c 11.17825,0 20.24,9.06175664 20.24,20.24000044 V 277.08535 c 0,11.17824 -9.06175,20.24 -20.24,20.24 l -47.69505,-8e-5 c -0.40283,-0.85407 -2.06134,-1.49402 -4.0461,-1.49402 -1.98475,0 -3.64326,0.63995 -4.04609,1.49402 H 69.473052 c -0.402833,-0.85407 -2.061342,-1.49402 -4.046096,-1.49402 -1.984755,0 -3.643263,0.63995 -4.046097,1.49402 l -41.025873,8e-5 c -11.1782435,0 -20.24000014,-9.06176 -20.24000014,-20.24 V 20.354931 c 0,-11.1782438 9.06175664,-20.24000044 20.24000014,-20.24000044 z"
                 inkscape:connector-curvature="0"
                 style="fill:#e5e5e5" />
              <rect
                 rx="14.03"
                 height="287.32639"
                 width="233.88124"
                 y="5.0569444"
                 x="5.0593781"
                 id="Inner-6"
                 style="fill:#fdfdfd" />
            </g>
            <g
               transform="translate(98.887842,287.32639)"
               id="Tamper-Pin-Open-2">
              <path
                 id="Rectangle-9"
                 d="m 38.63525,0 h 5.519321 c 1.270099,0 2.299717,1.0291232 2.299717,2.2986111 V 10.113889 H 36.335532 V 2.2986111 C 36.335532,1.0291232 37.365151,0 38.63525,0 Z"
                 inkscape:connector-curvature="0"
                 style="fill:#ffffff" />
              <path
                 id="path6862"
                 d="m 44.154571,0 c 1.270099,0 2.299717,1.0291232 2.299717,2.2986111 V 10.113889 H 36.335532 V 2.2986111 C 36.335532,1.0291232 37.365151,0 38.63525,0 Z m 0,0.91944444 H 38.63525 c -0.74474,0 -1.351676,0.58972586 -1.378879,1.32746206 l -9.52e-4,0.051705 v 6.8958333 h 8.278983 V 2.2986111 c 0,-0.7443815 -0.59001,-1.35102517 -1.328101,-1.37821538 z"
                 inkscape:connector-curvature="0"
                 style="fill:#e5e5e5;fill-rule:nonzero" />
              <path
                 id="path6864"
                 d="M 2.2997173,0 H 8.0490104 C 9.3191091,0 10.348728,1.0291232 10.348728,2.2986111 V 10.113889 H 0 V 2.2986111 C 0,1.0291232 1.0296185,0 2.2997173,0 Z"
                 inkscape:connector-curvature="0"
                 style="fill:#ffffff" />
              <path
                 id="path6866"
                 d="M 8.0490104,0 C 9.3191091,0 10.348728,1.0291232 10.348728,2.2986111 V 10.113889 H 0 V 2.2986111 C 0,1.0291232 1.0296185,0 2.2997173,0 Z m 0,0.91944444 H 2.2997173 c -0.7447398,0 -1.35167537,0.58972586 -1.37887867,1.32746206 L 0.9198869,2.2986111 V 9.1944444 H 9.4288407 V 2.2986111 c 0,-0.7443815 -0.5900097,-1.35102517 -1.3281009,-1.37821538 z"
                 inkscape:connector-curvature="0"
                 style="fill:#e5e5e5;fill-rule:nonzero" />
              <path
                 id="path6868"
                 d="m 36.335532,0 h 8.508954 c 0.88907,0 1.609802,0.72038627 1.609802,1.6090278 V 3.2180556 H 36.335532 Z"
                 inkscape:connector-curvature="0"
                 style="fill:#e5e5e5" />
              <path
                 id="path6870"
                 d="M 1.6098021,0 H 10.348728 V 3.2180556 H 0 V 1.6090278 C 0,0.72038627 0.72073294,0 1.6098021,0 Z"
                 inkscape:connector-curvature="0"
                 style="fill:#e5e5e5" />
              <polygon
                 points="10.348728,10.113889 10.348728,0 36.335532,0 36.335532,10.113889 "
                 id="polygon6872"
                 style="fill:#ffffff" />
              <polygon
                 points="16.557964,22.75625 16.557964,2.7583333 30.356268,2.7583333 30.356268,22.75625 "
                 id="polygon6874"
                 style="fill:#ffffff" />
              <path
                 id="path6876"
                 d="M 30.356268,2.7583333 V 22.75625 H 16.557964 V 2.7583333 Z M 29.896324,3.2180556 H 17.017908 V 22.296528 h 12.878416 z"
                 inkscape:connector-curvature="0"
                 style="fill:#e5e5e5;fill-rule:nonzero" />
              <polygon
                 points="9.7737983,2.6434028 37.140434,2.6434028 37.140434,3.1034028 9.7737983,3.1034028 "
                 id="Line-5-1"
                 style="fill:#e5e5e5;fill-rule:nonzero" />
              <path
                 id="path6879"
                 d="m 12.648445,16.55 h 20.927427 c 1.270099,0 2.299717,1.029123 2.299717,2.298611 v 7.815278 H 10.348728 v -7.815278 c 0,-1.269488 1.029618,-2.298611 2.299717,-2.298611 z"
                 inkscape:connector-curvature="0"
                 style="fill:#ffffff" />
              <path
                 id="path6881"
                 d="m 33.575872,16.55 c 1.270099,0 2.299717,1.029123 2.299717,2.298611 v 7.815278 H 10.348728 v -7.815278 c 0,-1.269488 1.029618,-2.298611 2.299717,-2.298611 z m 0,0.919444 H 12.648445 c -0.74474,0 -1.351675,0.589726 -1.378879,1.327463 l -9.51e-4,0.0517 v 6.895833 h 23.687087 v -6.895833 c 0,-0.744381 -0.590009,-1.351025 -1.328101,-1.378215 z"
                 inkscape:connector-curvature="0"
                 style="fill:#e5e5e5;fill-rule:nonzero" />
              <polygon
                 points="10.348728,19.768056 10.348728,16.55 35.875589,16.55 35.875589,19.768056 "
                 id="polygon6883"
                 style="fill:#e5e5e5" />
            </g>
          </g>
          <g
             transform="translate(10,37)"
             id="Exposed-Plate-2">
            <g
               id="Mounting-Plate-Elements-7">
              <g
                 id="Outer-Circle-0">
                <ellipse
                   ry="112.17222"
                   rx="112.2262"
                   cy="112.17222"
                   cx="112.2262"
                   id="Oval-9-9"
                   style="opacity:0.31516077;fill:#9a9494" />
                <ellipse
                   ry="102.97743"
                   rx="103.02726"
                   cy="112.05729"
                   cx="112.11121"
                   id="ellipse6888"
                   style="fill:#f8f8f8;stroke:#979797;stroke-width:1.14999998" />
              </g>
              <g
                 transform="translate(23.687088,82.75)"
                 id="Wire-Ingress-3"
                 style="stroke:#979797;stroke-width:1.38">
                <path
                   id="path6891"
                   d="m 42.199727,0.69 v 70.376568 l -25.637641,0.41514 C 9.5363498,64.330639 4.8606454,54.888591 2.5155339,43.166609 0.15872801,31.386173 0.13745777,17.227058 2.4387178,0.68999999 v 0 z"
                   inkscape:connector-curvature="0" />
                <path
                   id="path6893"
                   transform="matrix(-1,0,0,1,311.3748,0)"
                   d="m 176.42195,0.69 v 70.376568 l -25.63764,0.41514 c -7.02574,-7.151069 -11.70144,-16.593117 -14.04656,-28.315099 -2.3568,-11.780436 -2.37807,-25.939551 -0.0768,-42.47660898 v 0 z"
                   inkscape:connector-curvature="0" />
              </g>
              <g
                 transform="translate(91.528746,19.768056)"
                 id="Mounting-Screw-Hole-6">
                <rect
                   rx="10.802917"
                   height="21.605833"
                   width="39.554909"
                   y="0.92000002"
                   x="0.92000002"
                   id="Outer-0"
                   style="fill:#f9f9f9;stroke:#b4b3b3;stroke-width:1.84000003" />
                <rect
                   rx="5.0566669"
                   height="10.113334"
                   width="25.296776"
                   y="6.6662502"
                   x="8.0490665"
                   id="rect6897"
                   style="fill:#ffffff;stroke:#cacaca;stroke-width:0.92000002" />
              </g>
              <g
                 transform="translate(91.528746,183.88889)"
                 id="g6904">
                <rect
                   rx="10.802917"
                   height="21.605833"
                   width="39.554909"
                   y="0.92000002"
                   x="0.92000002"
                   id="rect6900"
                   style="fill:#f9f9f9;stroke:#b4b3b3;stroke-width:1.84000003" />
                <rect
                   rx="5.0566669"
                   height="10.113334"
                   width="25.296776"
                   y="6.6662502"
                   x="8.0490665"
                   id="rect6902"
                   style="fill:#ffffff;stroke:#cacaca;stroke-width:0.92000002" />
              </g>
              <g
                 transform="translate(8.504293,30.277346)"
                 id="Mounting-Snap-Areas-6"
                 style="fill:#ffffff">
                <g
                   transform="translate(26.446748,141.93924)"
                   id="Group-26"
                   style="stroke:#d3d3d3;stroke-width:0.92000002">
                  <g
                     transform="matrix(0.69465837,0.7193398,0.7193398,-0.69465837,-3.1437392,7.4061854)"
                     id="Snap-Area-BL-1">
                    <rect
                       rx="1.15"
                       height="3.6772223"
                       width="17.477737"
                       y="6.436389"
                       x="0.46000001"
                       id="rect6906" />
                  </g>
                </g>
                <g
                   transform="translate(161.67478,141.08411)"
                   id="g6913"
                   style="stroke:#d3d3d3;stroke-width:0.92000002">
                  <g
                     transform="matrix(0.69465837,-0.7193398,-0.7193398,-0.69465837,8.7613345,20.640411)"
                     id="Snap-Area-BR-8">
                    <rect
                       rx="1.15"
                       height="3.6772223"
                       width="17.477737"
                       y="6.436389"
                       x="0.46000001"
                       id="rect6910" />
                  </g>
                </g>
                <g
                   transform="translate(161.44481,4.201821)"
                   id="g6918"
                   style="stroke:#d3d3d3;stroke-width:0.92000002">
                  <g
                     transform="rotate(46,9.198869,8.275)"
                     id="Snap-Area-TR-7">
                    <rect
                       rx="1.15"
                       height="3.6772223"
                       width="17.477737"
                       y="6.436389"
                       x="0.46000001"
                       id="rect6915" />
                  </g>
                </g>
                <g
                   transform="translate(26.216777,5.056944)"
                   id="g6923"
                   style="stroke:#d3d3d3;stroke-width:0.92000002">
                  <g
                     transform="rotate(-46,9.198869,8.275)"
                     id="Snap-Area-TL-9">
                    <rect
                       rx="1.15"
                       height="3.6772223"
                       width="17.477737"
                       y="6.436389"
                       x="0.46000001"
                       id="rect6920" />
                  </g>
                </g>
                <g
                   transform="translate(0.065893,69.252515)"
                   id="g6928"
                   style="stroke:#bcbaba;stroke-width:1.14999998">
                  <g
                     id="Mounting-Big-Snap-2">
                    <path
                       id="path6925"
                       d="m 8.5625662,0.575 0.575,23.329861 -7.3457852,0.575 C 0.78993144,19.21205 0.575,15.057523 0.575,11.493056 0.575,8.0163115 0.77964128,4.5461324 1.1889103,1.0825257 v 0 z"
                       inkscape:connector-curvature="0" />
                  </g>
                </g>
                <g
                   transform="translate(197.3204,69.482376)"
                   id="g6933"
                   style="stroke:#bcbaba;stroke-width:1.14999998">
                  <g
                     transform="matrix(-1,0,0,1,9.888784,0)"
                     id="Mounting-Big-Snap-Copy-0">
                    <path
                       id="path6930"
                       d="m 8.5625662,0.575 0.575,23.329861 -7.3457852,0.575 C 0.78993144,19.21205 0.575,15.057523 0.575,11.493056 0.575,8.0163115 0.77964128,4.5461324 1.1889103,1.0825257 v 0 z"
                       inkscape:connector-curvature="0" />
                  </g>
                </g>
              </g>
              <ellipse
                 ry="102.97743"
                 rx="103.02726"
                 cy="112.05729"
                 cx="112.11121"
                 id="ellipse6936"
                 style="stroke:#979797;stroke-width:1.14999998" />
            </g>
            <g
               transform="translate(95.438266,137.22708)"
               id="Level-2"
               style="opacity:0.46028646">
              <rect
                 rx="1.84"
                 height="12.181806"
                 width="32.195873"
                 y="0.69"
                 x="0.69"
                 id="rect6939"
                 style="fill:#6fcdef;stroke:#20abdd;stroke-width:1.38" />
              <path
                 id="Oval-3"
                 d="m 16.787936,8.275 c 2.032158,0 3.679547,-1.9101151 3.679547,-4.2663615 0,-2.3562464 -1.65205,-2.6294718 -3.684208,-2.6294718 -2.032158,0 -3.674887,0.2732254 -3.674887,2.6294718 0,2.3562464 1.64739,4.2663615 3.679548,4.2663615 z"
                 inkscape:connector-curvature="0"
                 style="fill:#c8e4fe" />
              <path
                 id="Oval-Copy-7"
                 d="m 16.787936,5.4735677 c 1.905148,0 3.449576,-1.0612833 3.449576,-2.3704427 0,-1.3091594 -1.544428,-1.7239583 -3.449576,-1.7239583 -1.905148,0 -3.449576,0.4147989 -3.449576,1.7239583 0,1.3091594 1.544428,2.3704427 3.449576,2.3704427 z"
                 inkscape:connector-curvature="0"
                 style="fill:#e4ebf3" />
              <rect
                 height="10.803473"
                 width="1"
                 y="1.3791667"
                 x="10.118756"
                 id="rect6943"
                 style="fill:#0198d0" />
              <rect
                 height="10.803473"
                 width="1"
                 y="1.3791667"
                 x="22.53723"
                 id="Rectangle-Copy-5"
                 style="fill:#0198d0" />
              <path
                 id="path6946"
                 d="m 23.687088,0 h 2.989632 v 2.0684722 c 0,0.254051 -0.205949,0.46 -0.46,0.46 h -2.069632 c -0.254051,0 -0.46,-0.205949 -0.46,-0.46 z"
                 inkscape:connector-curvature="0"
                 style="fill:#f8f8f8" />
              <path
                 id="Rectangle-Copy-2-9"
                 d="m 6.66918,0 h 2.9896324 v 2.0684722 c 0,0.254051 -0.205949,0.46 -0.46,0.46 H 7.12918 c -0.254051,0 -0.46,-0.205949 -0.46,-0.46 z"
                 inkscape:connector-curvature="0"
                 style="fill:#f8f8f8" />
              <path
                 transform="matrix(1,0,0,-1,0,24.595138)"
                 id="Rectangle-Copy-3-2"
                 d="m 6.66918,11.033333 h 2.9896324 v 2.068473 c 0,0.254051 -0.205949,0.46 -0.46,0.46 H 7.12918 c -0.254051,0 -0.46,-0.205949 -0.46,-0.46 z"
                 inkscape:connector-curvature="0"
                 style="fill:#f8f8f8" />
              <path
                 transform="matrix(1,0,0,-1,0,24.595138)"
                 id="Rectangle-Copy-4-2"
                 d="m 23.687088,11.033333 h 2.989632 v 2.068473 c 0,0.254051 -0.205949,0.46 -0.46,0.46 h -2.069632 c -0.254051,0 -0.46,-0.205949 -0.46,-0.46 z"
                 inkscape:connector-curvature="0"
                 style="fill:#f8f8f8" />
            </g>
            <g
               transform="translate(66.6918,49.420139)"
               id="Terminal-Holder-Ridge-8"
               style="fill:#d8d8d8">
              <rect
                 rx="0.92000002"
                 height="3.9076388"
                 width="91.298775"
                 y="0"
                 x="0"
                 id="rect6952" />
              <rect
                 rx="0.92000002"
                 height="3.9076388"
                 width="91.298775"
                 y="25.974306"
                 x="0"
                 id="rect6954" />
            </g>
            <g
               transform="translate(30.646592,75)"
               id="Group-4-9">
              <g
                 transform="translate(1.353408)"
                 id="Green-Wire-7">
                <g
                   transform="matrix(-1,0,0,1,46,0)"
                   id="Wire-1-3">
                  <g
                     transform="translate(0,2.451429)"
                     id="Wire-Focused---Green-6"
                     style="fill:#4aa346;stroke:#ffffff;stroke-width:0.884">
                    <g
                       id="g6959">
                      <path
                         id="path6957"
                         d="m 0,0 h 6.6160714 c 0,15.07483 0,22.686531 0,22.835102 0,2.102596 1.4631795,3.907755 3.3594219,3.907755 0.2873207,0 21.4164627,0 21.7980847,0 9.990359,0 14.226422,6.842462 14.226422,13.546619 0,0.246015 0,10.499741 0,30.761179 L 38.457101,79 c 0,-24.067314 0,-36.467791 0,-37.201429 0,-6.75 -2.473458,-8.213252 -6.683523,-8.213252 -0.758351,0 -21.720342,0 -21.7980847,0 C 4.0776781,33.585319 0,29.187525 0,21.45711 0,21.30854 0,14.15617 0,0 Z"
                         inkscape:connector-curvature="0" />
                    </g>
                  </g>
                  <g
                     transform="translate(1.323214,0.111429)"
                     id="Top-Tip-1">
                    <rect
                       height="2.6742857"
                       width="3.9696429"
                       y="0.11142857"
                       x="0"
                       id="rect6962"
                       style="fill:#c4c4c4" />
                    <rect
                       height="2.2285714"
                       width="1"
                       y="0.55714285"
                       x="0.44107142"
                       id="rect6964"
                       style="fill:#f2f2f2" />
                  </g>
                </g>
                <text
                   font-weight="bold"
                   font-style="italic"
                   font-size="5.61"
                   id="G-2"
                   style="font-style:italic;font-weight:bold;font-size:5.61000013px;font-family:Lato-BoldItalic, Lato;fill:#ffffff">
                  <tspan
                     id="tspan6968"
                     y="12.829412"
                     x="40.638882">G</tspan>
                </text>
              </g>
              <g
                 transform="translate(22.353408)"
                 id="Black-Wire-9">
                <g
                   transform="matrix(-1,0,0,1,47,0)"
                   id="g6984">
                  <g
                     transform="translate(0,2.451429)"
                     id="g6976"
                     style="fill:#000000;stroke:#ffffff;stroke-width:0.884">
                    <g
                       id="g6974">
                      <path
                         id="path6972"
                         d="m 0,0 h 6.6160714 c 0,19.421648 0,29.206758 0,29.35533 0,9.64467 3.3048961,15.387527 11.6889776,15.387527 0.287321,0 17.466376,0 17.847998,0 6.271867,0 10.846953,2.987545 10.846953,11.354391 0,0.246016 0,7.230484 0,20.953407 L 39.457101,77 c 0,-13.20153 0,-20.169114 0,-20.902752 0,-4.668677 -1.577259,-4.668677 -2.889282,-4.668677 -0.758351,0 -18.185027,-0.38 -18.26277,-0.38 C 3.7970841,51.048571 0,42.122029 0,26.278805 0,26.130235 0,17.370633 0,0 Z"
                         inkscape:connector-curvature="0" />
                    </g>
                  </g>
                  <g
                     transform="translate(1.323214,0.111429)"
                     id="g6982">
                    <rect
                       height="2.6742857"
                       width="3.9696429"
                       y="0.11142857"
                       x="0"
                       id="rect6978"
                       style="fill:#c4c4c4" />
                    <rect
                       height="2.2285714"
                       width="1"
                       y="0.55714285"
                       x="0.44107142"
                       id="rect6980"
                       style="fill:#f2f2f2" />
                  </g>
                </g>
                <text
                   font-weight="bold"
                   font-style="italic"
                   font-size="5.61"
                   id="B-3"
                   style="font-style:italic;font-weight:bold;font-size:5.61000013px;font-family:Lato-BoldItalic, Lato;fill:#ffffff">
                  <tspan
                     id="tspan6986"
                     y="13"
                     x="41.817001">B</tspan>
                </text>
              </g>
              <g
                 transform="translate(11.353408)"
                 id="Red-Layer-1">
                <g
                   transform="matrix(-1,0,0,1,47,0)"
                   id="g7002">
                  <g
                     transform="translate(0,2.451429)"
                     id="g6994"
                     style="fill:#e3515f;stroke:#ffffff;stroke-width:0.884">
                    <g
                       id="g6992">
                      <path
                         id="path6990"
                         d="m 0,0 h 6.6160714 c 0,17.882414 0,26.897907 0,27.046478 0,8.696379 3.9713596,8.696379 6.5675896,8.696379 0.287321,0 22.434718,0 22.816339,0 8.312558,0 11,4.257143 11,13.334372 0,0.246015 0,10.237157 0,29.973426 L 39.457101,79 c 0,-20.510833 0,-31.133068 0,-31.866706 0,-2.900576 -0.381574,-4.723503 -2.676016,-4.723503 -0.758351,0 -23.519681,-0.246325 -23.597424,-0.246325 C 4.2352161,42.163466 0,38.048571 0,24.02639 0,23.87782 0,15.869023 0,0 Z"
                         inkscape:connector-curvature="0" />
                    </g>
                  </g>
                  <g
                     transform="translate(1.323214,0.111429)"
                     id="g7000">
                    <rect
                       height="2.6742857"
                       width="3.9696429"
                       y="0.11142857"
                       x="0"
                       id="rect6996"
                       style="fill:#c4c4c4" />
                    <rect
                       height="2.2285714"
                       width="1"
                       y="0.55714285"
                       x="0.44107142"
                       id="rect6998"
                       style="fill:#f2f2f2" />
                  </g>
                </g>
                <text
                   font-weight="bold"
                   font-style="italic"
                   font-size="5.61"
                   id="R-9"
                   style="font-style:italic;font-weight:bold;font-size:5.61000013px;font-family:Lato-BoldItalic, Lato;fill:#ffffff">
                  <tspan
                     id="tspan7004"
                     y="13"
                     x="41.804379">R</tspan>
                </text>
              </g>
              <g
                 transform="translate(0,65.555398)"
                 id="Group-2-4">
                <path
                   id="Path-7"
                   d="M 0.25628774,0 C 1.2984746,3.3612789 8.4390519,12.462828 9.5398249,13.667665"
                   inkscape:connector-curvature="0"
                   style="stroke:#979797;stroke-width:1.36000001" />
                <line
                   id="Line-8"
                   y2="13.444602"
                   x2="34.353409"
                   y1="13.444602"
                   x1="9.3534079"
                   style="stroke:#979797;stroke-width:2;stroke-linecap:square" />
                <path
                   id="Path-2-4"
                   d="M 0,1.2114087 1,20.763241 H 35.930222 V 13.946685 C 22.64366,14.229555 13.773292,14.370991 9.3191177,14.370991 6.7455105,11.556629 3.6391379,7.170102 0,1.2114087 Z"
                   inkscape:connector-curvature="0"
                   style="fill:#f8f8f8" />
              </g>
              <g
                 transform="matrix(-1,0,0,1,164,63.555398)"
                 id="g7018">
                <path
                   id="path7012"
                   d="M 0.37373687,0.58398755 C 1.4159237,3.9452664 9.4390519,14.462828 10.539825,15.667665"
                   inkscape:connector-curvature="0"
                   style="stroke:#979797;stroke-width:1.39999998" />
                <line
                   id="line7014"
                   y2="15.444602"
                   x2="35.353409"
                   y1="15.444602"
                   x1="10.353408"
                   style="stroke:#979797;stroke-width:2;stroke-linecap:square" />
                <path
                   id="path7016"
                   d="M 0.37373687,2.4174391 2,22.763241 H 36.930222 V 15.946685 C 23.64366,16.229555 14.773292,16.370991 10.319118,16.370991 7.7455105,13.556629 4.4303836,8.9054455 0.37373687,2.4174391 Z"
                   inkscape:connector-curvature="0"
                   style="fill:#f8f8f8" />
              </g>
            </g>
            <g
               transform="translate(68.991517,52.408333)"
               id="g7150">
              <g
                 transform="translate(37.38909,18.359961)"
                 id="g7029">
                <g
                   transform="translate(0,0.863998)"
                   id="Tamper-Bridge-5">
                  <rect
                     height="4.9679894"
                     width="1.5172385"
                     y="0"
                     x="0"
                     id="rect7021"
                     style="fill:#d8d8d8;stroke:#979797;stroke-width:0.5" />
                  <rect
                     height="4.9679894"
                     width="1.5172385"
                     y="0"
                     x="11.270914"
                     id="rect7023"
                     style="fill:#d8d8d8;stroke:#979797;stroke-width:0.5" />
                  <path
                     id="Line-13-0"
                     d="m 0.75861923,4.7519898 c 0,1.3122257 1.06376917,2.3759949 2.37599487,2.3759949 h 6.5731116 c 1.3122253,0 2.3759953,-1.0637692 2.3759953,-2.3759949 v 0 0"
                     inkscape:connector-curvature="0"
                     style="stroke:#989898;stroke-width:1.08387494;stroke-linecap:square" />
                  <path
                     id="path7026"
                     d="m 0.70443214,5.3999884 c 0,0.954346 0.77365026,1.7279963 1.72799626,1.7279963 h 7.8691086 c 0.954346,0 1.727996,-0.7736503 1.727996,-1.7279963 v 0 0"
                     inkscape:connector-curvature="0"
                     style="stroke:#4f4f4f;stroke-width:2.16774988;stroke-linecap:square" />
                </g>
              </g>
              <g
                 id="Block-3">
                <rect
                   height="24.839947"
                   width="86.699341"
                   y="0"
                   x="0"
                   id="Terminal-Connector-6"
                   style="fill:#d8d8d8" />
                <path
                   id="path7032"
                   d="m 0.8671,0 h 84.96514 c 0.478886,0 0.8671,0.38821389 0.8671,0.8671 v 9.500878 0 H 0 V 0.8671 C 0,0.38821389 0.38821389,0 0.8671,0 Z"
                   inkscape:connector-curvature="0"
                   style="fill:#323232" />
                <path
                   id="path7034"
                   d="m 0,10.367978 h 86.69934 v 13.604869 c 0,0.478886 -0.388214,0.8671 -0.8671,0.8671 H 0.8671 C 0.38821389,24.839947 0,24.451733 0,23.972847 Z"
                   inkscape:connector-curvature="0"
                   style="fill:#4a4a4a" />
              </g>
              <g
                 transform="translate(70.443214,1.727996)"
                 id="g7048">
                <g
                   transform="rotate(43,5.5406318,13.413962)"
                   id="Screw-1">
                  <ellipse
                     ry="3.2345648"
                     rx="3.2510388"
                     cy="4.9647069"
                     cx="4.8265615"
                     id="ellipse7037"
                     style="stroke:#4a4a4a;stroke-width:3.03484988" />
                  <g
                     transform="translate(5.315808,5.895399)"
                     id="g7045">
                    <ellipse
                       ry="4.64399"
                       rx="4.6600895"
                       cy="4.6913567"
                       cx="4.8561707"
                       id="ellipse7039"
                       style="fill:#d8d8d8" />
                    <polygon
                       points="1.0708301,5.7109919 1.0708301,3.9770051 8.6308139,3.9770051 8.6308139,5.7109919 "
                       transform="rotate(90,4.850822,4.843998)"
                       id="polygon7041"
                       style="fill:#979797" />
                    <polygon
                       points="1.0577259,5.7079966 1.0577259,3.9800003 8.6439181,3.9800003 8.6439181,5.7079966 "
                       id="polygon7043"
                       style="fill:#979797" />
                  </g>
                </g>
              </g>
              <g
                 transform="translate(59.822545,1.727996)"
                 id="g7062">
                <g
                   transform="rotate(43,5.5406318,13.413962)"
                   id="g7060">
                  <ellipse
                     ry="3.2345648"
                     rx="3.2510388"
                     cy="4.9647069"
                     cx="4.8265615"
                     id="ellipse7050"
                     style="stroke:#4a4a4a;stroke-width:3.03484988" />
                  <g
                     transform="translate(5.315808,5.895399)"
                     id="g7058">
                    <ellipse
                       ry="4.64399"
                       rx="4.6600895"
                       cy="4.6913567"
                       cx="4.8561707"
                       id="ellipse7052"
                       style="fill:#d8d8d8" />
                    <polygon
                       points="1.0708301,5.7109919 1.0708301,3.9770051 8.6308139,3.9770051 8.6308139,5.7109919 "
                       transform="rotate(90,4.850822,4.843998)"
                       id="polygon7054"
                       style="fill:#979797" />
                    <polygon
                       points="1.0577259,5.7079966 1.0577259,3.9800003 8.6439181,3.9800003 8.6439181,5.7079966 "
                       id="polygon7056"
                       style="fill:#979797" />
                  </g>
                </g>
              </g>
              <g
                 transform="translate(49.201876,1.727996)"
                 id="g7076">
                <g
                   transform="rotate(43,5.5406318,13.413962)"
                   id="g7074">
                  <ellipse
                     ry="3.2345648"
                     rx="3.2510388"
                     cy="4.9647069"
                     cx="4.8265615"
                     id="ellipse7064"
                     style="stroke:#4a4a4a;stroke-width:3.03484988" />
                  <g
                     transform="translate(5.315808,5.895399)"
                     id="g7072">
                    <ellipse
                       ry="4.64399"
                       rx="4.6600895"
                       cy="4.6913567"
                       cx="4.8561707"
                       id="ellipse7066"
                       style="fill:#d8d8d8" />
                    <polygon
                       points="1.0708301,5.7109919 1.0708301,3.9770051 8.6308139,3.9770051 8.6308139,5.7109919 "
                       transform="rotate(90,4.850822,4.843998)"
                       id="polygon7068"
                       style="fill:#979797" />
                    <polygon
                       points="1.0577259,5.7079966 1.0577259,3.9800003 8.6439181,3.9800003 8.6439181,5.7079966 "
                       id="polygon7070"
                       style="fill:#979797" />
                  </g>
                </g>
              </g>
              <g
                 transform="translate(38.364458,1.727996)"
                 id="g7090">
                <g
                   transform="rotate(43,5.5406318,13.413962)"
                   id="g7088">
                  <ellipse
                     ry="3.2345648"
                     rx="3.2510388"
                     cy="4.9647069"
                     cx="4.8265615"
                     id="ellipse7078"
                     style="stroke:#4a4a4a;stroke-width:3.03484988" />
                  <g
                     transform="translate(5.315808,5.895399)"
                     id="g7086">
                    <ellipse
                       ry="4.64399"
                       rx="4.6600895"
                       cy="4.6913567"
                       cx="4.8561707"
                       id="ellipse7080"
                       style="fill:#d8d8d8" />
                    <polygon
                       points="1.0708301,5.7109919 1.0708301,3.9770051 8.6308139,3.9770051 8.6308139,5.7109919 "
                       transform="rotate(90,4.850822,4.843998)"
                       id="polygon7082"
                       style="fill:#979797" />
                    <polygon
                       points="1.0577259,5.7079966 1.0577259,3.9800003 8.6439181,3.9800003 8.6439181,5.7079966 "
                       id="polygon7084"
                       style="fill:#979797" />
                  </g>
                </g>
              </g>
              <g
                 transform="translate(27.527041,1.727996)"
                 id="g7104">
                <g
                   transform="rotate(43,5.5406318,13.413962)"
                   id="g7102">
                  <ellipse
                     ry="3.2345648"
                     rx="3.2510388"
                     cy="4.9647069"
                     cx="4.8265615"
                     id="ellipse7092"
                     style="stroke:#4a4a4a;stroke-width:3.03484988" />
                  <g
                     transform="translate(5.315808,5.895399)"
                     id="g7100">
                    <ellipse
                       ry="4.64399"
                       rx="4.6600895"
                       cy="4.6913567"
                       cx="4.8561707"
                       id="ellipse7094"
                       style="fill:#d8d8d8" />
                    <polygon
                       points="1.0708301,5.7109919 1.0708301,3.9770051 8.6308139,3.9770051 8.6308139,5.7109919 "
                       transform="rotate(90,4.850822,4.843998)"
                       id="polygon7096"
                       style="fill:#979797" />
                    <polygon
                       points="1.0577259,5.7079966 1.0577259,3.9800003 8.6439181,3.9800003 8.6439181,5.7079966 "
                       id="polygon7098"
                       style="fill:#979797" />
                  </g>
                </g>
              </g>
              <g
                 transform="translate(16.689623,1.727996)"
                 id="g7118">
                <g
                   transform="rotate(43,5.5406318,13.413962)"
                   id="g7116">
                  <ellipse
                     ry="3.2345648"
                     rx="3.2510388"
                     cy="4.9647069"
                     cx="4.8265615"
                     id="ellipse7106"
                     style="stroke:#4a4a4a;stroke-width:3.03484988" />
                  <g
                     transform="translate(5.315808,5.895399)"
                     id="g7114">
                    <ellipse
                       ry="4.64399"
                       rx="4.6600895"
                       cy="4.6913567"
                       cx="4.8561707"
                       id="ellipse7108"
                       style="fill:#d8d8d8" />
                    <polygon
                       points="1.0708301,5.7109919 1.0708301,3.9770051 8.6308139,3.9770051 8.6308139,5.7109919 "
                       transform="rotate(90,4.850822,4.843998)"
                       id="polygon7110"
                       style="fill:#979797" />
                    <polygon
                       points="1.0577259,5.7079966 1.0577259,3.9800003 8.6439181,3.9800003 8.6439181,5.7079966 "
                       id="polygon7112"
                       style="fill:#979797" />
                  </g>
                </g>
              </g>
              <g
                 transform="translate(5.852205,1.727996)"
                 id="g7132">
                <g
                   transform="rotate(43,5.5406318,13.413962)"
                   id="g7130">
                  <ellipse
                     ry="3.2345648"
                     rx="3.2510388"
                     cy="4.9647069"
                     cx="4.8265615"
                     id="ellipse7120"
                     style="stroke:#4a4a4a;stroke-width:3.03484988" />
                  <g
                     transform="translate(5.315808,5.895399)"
                     id="g7128">
                    <ellipse
                       ry="4.64399"
                       rx="4.6600895"
                       cy="4.6913567"
                       cx="4.8561707"
                       id="ellipse7122"
                       style="fill:#d8d8d8" />
                    <polygon
                       points="1.0708301,5.7109919 1.0708301,3.9770051 8.6308139,3.9770051 8.6308139,5.7109919 "
                       transform="rotate(90,4.850822,4.843998)"
                       id="polygon7124"
                       style="fill:#979797" />
                    <polygon
                       points="1.0577259,5.7079966 1.0577259,3.9800003 8.6439181,3.9800003 8.6439181,5.7079966 "
                       id="polygon7126"
                       style="fill:#979797" />
                  </g>
                </g>
              </g>
              <g
                 transform="translate(-4.985212,1.727996)"
                 id="g7146">
                <g
                   transform="rotate(43,5.5406318,13.413962)"
                   id="g7144">
                  <ellipse
                     ry="3.2345648"
                     rx="3.2510388"
                     cy="4.9647069"
                     cx="4.8265615"
                     id="ellipse7134"
                     style="stroke:#4a4a4a;stroke-width:3.03484988" />
                  <g
                     transform="translate(5.315808,5.895399)"
                     id="g7142">
                    <ellipse
                       ry="4.64399"
                       rx="4.6600895"
                       cy="4.6913567"
                       cx="4.8561707"
                       id="ellipse7136"
                       style="fill:#d8d8d8" />
                    <polygon
                       points="1.0708301,5.7109919 1.0708301,3.9770051 8.6308139,3.9770051 8.6308139,5.7109919 "
                       transform="rotate(90,4.850822,4.843998)"
                       id="polygon7138"
                       style="fill:#979797" />
                    <polygon
                       points="1.0577259,5.7079966 1.0577259,3.9800003 8.6439181,3.9800003 8.6439181,5.7079966 "
                       id="polygon7140"
                       style="fill:#979797" />
                  </g>
                </g>
              </g>
              <rect
                 height="10.542152"
                 width="20.697454"
                 y="11.344273"
                 x="33.345901"
                 id="rect7148"
                 style="fill:#4a4a4a" />
            </g>
          </g>
          <text
             font-weight="normal"
             font-size="9.03681"
             id="Meter-1-0"
             style="font-weight:normal;font-size:9.03680992px;font-family:Lato-Regular, Lato;fill:#989898">
            <tspan
               id="tspan7153"
               y="205"
               x="47.108768">Meter 1</tspan>
          </text>
          <text
             font-weight="normal"
             font-size="9.03681"
             id="Meter-2-6"
             style="font-weight:normal;font-size:9.03680992px;font-family:Lato-Regular, Lato;fill:#989898">
            <tspan
               id="tspan7156"
               y="205"
               x="167.10876">Meter 2</tspan>
          </text>
          <circle
             r="11.5"
             cy="149.5"
             cx="122.5"
             id="circle7159"
             style="stroke:#d3d3d3;stroke-width:0.5" />
          <circle
             r="8.5"
             cy="149.5"
             cx="122.5"
             id="circle7161"
             style="fill:#d3d3d3" />
        </g>
      </g>
    </g>
  </g>
</svg>
