<?xml version="1.0" encoding="UTF-8"?>
<svg width="418px" height="196px" viewBox="0 0 418 196" version="1.1" xmlns="http://www.w3.org/2000/svg" xmlns:xlink="http://www.w3.org/1999/xlink">
    <title>Transceiver_201_Trent</title>
    <g id="Page-1" stroke="none" stroke-width="1" fill="none" fill-rule="evenodd">
        <g id="Artboard-2" transform="translate(-293.000000, -216.000000)">
            <g id="Group" transform="translate(293.000000, 220.000000)">
                <g id="Transceiver" transform="translate(23.000000, 0.000000)">
                    <g id="Plastics" opacity="0.353952892" transform="translate(4.000000, 0.000000)" stroke-width="4">
                        <rect id="Rectangle-1" stroke="#DEDEDE" fill="#FFFFFF" x="-2" y="-2" width="391" height="192" rx="8"></rect>
                        <rect id="Rectangle-1" stroke="#C6C6C6" fill="#C6C6C6" x="2" y="2" width="383" height="184" rx="8"></rect>
                    </g>
                    <rect id="PCB" fill="#5B93C3" opacity="0.353952892" x="13" y="8" width="369" height="172" rx="6"></rect>
                    <g id="Battery-Container" transform="translate(29.000000, 21.000000)">
                        <rect id="Rectangle-11" fill="#656565" x="195" y="11" width="8" height="63"></rect>
                        <rect id="Rectangle-11" fill="#656565" x="8" y="11" width="15" height="63"></rect>
                        <path d="M195,66 L203,66 L203,61 L210,61 L210,79.9969516 C210,81.6554894 208.658981,83 206.991028,83 L3.0089721,83 C1.3471627,83 0,81.6626504 0,79.9969516 L0,61 L8,61 L8,66 L24,66 L24,17 L8,17 L8,22 L0,22 L0,3.00304844 C0,1.34451058 1.34101868,0 3.0089721,0 L206.991028,0 C208.652837,0 210,1.33734963 210,3.00304844 L210,22 L203,22 L203,17 L195,17 L195,66 Z" id="Rectangle-4" fill="#333333"></path>
                    </g>
                    <g id="Battery" transform="translate(45.000000, 26.000000)">
                        <rect id="Rectangle-4" fill="#C1C1C1" x="158" y="25" width="21" height="24" rx="10"></rect>
                        <rect id="Rectangle-4" fill="#A6A6A6" x="0" y="0" width="173" height="73" rx="10"></rect>
                        <path d="M0,56.0027261 C0,61.5160492 4.47782546,66 10.0015031,66 L10.0015031,66 L162.998497,66 C168.527764,66 173,61.524068 173,56.0027261 L173,56.0027261 L173,64 C173,68.9705627 168.978311,73 164.002795,73 L8.99720523,73 C4.02818599,73 0,68.9716556 0,64 Z" id="Rectangle-4" fill="#919191"></path>
                        <rect id="Rectangle-13" fill="#C1C1C1" x="7" y="7" width="125" height="18" rx="4"></rect>
                    </g>
                    <g id="Tamper-Button" transform="translate(287.000000, 20.000000)">
                        <rect id="Rectangle-14" fill="#5B5B5B" x="0" y="3" width="28" height="28" rx="2"></rect>
                        <rect id="Rectangle-14" fill="#D8D8D8" x="0" y="0" width="28" height="28" rx="2"></rect>
                        <circle id="Oval-1" fill="#6C6C6C" cx="14" cy="14" r="9"></circle>
                        <circle id="Oval-1" fill="#4E4E4E" cx="2.5" cy="2.5" r="1.5"></circle>
                        <circle id="Oval-1" fill="#4E4E4E" cx="25.5" cy="2.5" r="1.5"></circle>
                        <circle id="Oval-1" fill="#4E4E4E" cx="25.5" cy="25.5" r="1.5"></circle>
                        <circle id="Oval-1" fill="#4E4E4E" cx="2.5" cy="25.5" r="1.5"></circle>
                    </g>
                    <g id="LED" transform="translate(357.000000, 20.000000)">
                        <rect id="Rectangle-15" stroke="#FFFFFF" fill="#F0EDC9" x="0.5" y="0.5" width="11" height="13" rx="1"></rect>
                        <rect id="Rectangle-16" stroke="#CAC799" fill="#D8D8D8" x="3.5" y="3.5" width="5" height="1"></rect>
                        <rect id="Rectangle-16" stroke="#CAC799" fill="#D8D8D8" x="3.5" y="6.5" width="5" height="1"></rect>
                        <rect id="Rectangle-16" stroke="#CAC799" fill="#D8D8D8" x="3.5" y="9.5" width="5" height="1"></rect>
                    </g>
                    <g id="Test-Button" transform="translate(343.000000, 90.000000)">
                        <rect id="Rectangle-14" fill="#5B5B5B" x="0" y="3" width="28" height="28" rx="2"></rect>
                        <rect id="Rectangle-14" fill="#D8D8D8" x="0" y="0" width="28" height="28" rx="2"></rect>
                        <circle id="Oval-1" fill="#D84B4B" cx="14" cy="14" r="9"></circle>
                        <circle id="Oval-1" fill="#4E4E4E" cx="2.5" cy="2.5" r="1.5"></circle>
                        <circle id="Oval-1" fill="#4E4E4E" cx="25.5" cy="2.5" r="1.5"></circle>
                        <circle id="Oval-1" fill="#4E4E4E" cx="25.5" cy="25.5" r="1.5"></circle>
                        <circle id="Oval-1" fill="#4E4E4E" cx="2.5" cy="25.5" r="1.5"></circle>
                    </g>
                    <g id="Rectangle-27-+-Rectangle-27" transform="translate(0.000000, 136.000000)">
                        <rect id="Rectangle-27" fill="#898989" x="0" y="0" width="8" height="28"></rect>
                        <rect id="Rectangle-27" fill="#9E9E9E" x="0" y="3" width="8" height="22"></rect>
                    </g>
                    <g id="Tab" transform="translate(4.000000, 35.000000)">
                        <polygon id="Rectangle-28" fill="#DEDEDE" points="0 0.5 14 7.13883203 14 90.5984346 0 97.2372667"></polygon>
                        <path d="M11,19.6359775 C11,18.804644 11.6657972,18.130715 12.5,18.130715 L14,18.130715 L14,77.8174539 L12.5,77.8174539 C11.6715729,77.8174539 11,77.1471439 11,76.3121915 L11,19.6359775 Z" id="Rectangle-29" fill="#ADADAD"></path>
                    </g>
                </g>
                <g id="Plus" transform="translate(70.000000, 114.000000)" fill="#FFFFFF">
                    <rect id="Rectangle-31" x="5" y="0" width="3" height="12"></rect>
                    <polygon id="Rectangle-31" points="12.5 4.5 12.5 7.5 0.5 7.5 0.5 4.5"></polygon>
                </g>
                <rect id="Minus" fill="#FFFFFF" transform="translate(76.500000, 157.000000) rotate(-180.000000) translate(-76.500000, -157.000000) " x="75" y="152" width="3" height="10"></rect>
                <g id="Wires" transform="translate(0.000000, 128.000000)">
                    <rect id="Rectangle-66" stroke="#DCDCDC" fill="#B8B8B8" x="76.5" y="1.5" width="9" height="2"></rect>
                    <path d="M58.3318691,7.67007208 C58.3318691,7.67007208 65.2823834,3.81435256 68.7576406,2.3864928 C71.5050937,1.25766187 76.0321175,0.230291047 76.0321175,0.230291047 C76.5666642,0.103104814 77,0.443716645 77,0.999807492 L77,4.00019251 C77,4.55237094 76.5575804,5.0902557 76.0282577,5.20209078 C76.0282577,5.20209078 71.9816449,5.99086423 69.4724673,6.98629634 C65.7589346,8.459516 58.3318691,12.4059553 58.3318691,12.4059553 L58.3318691,7.67007208 Z" id="Rectangle-68" fill="#E75F5F"></path>
                    <rect id="Rectangle-66" stroke="#DCDCDC" fill="#B8B8B8" x="76.5" y="18.5" width="9" height="2"></rect>
                    <path d="M58.7223449,12 C58.7223449,12 66.0926157,15.016197 69.7777511,16.0242956 C72.1851674,16.6828637 76.0180933,16.9242016 76.0180933,16.9242016 C76.5603854,16.9660639 77,17.4437166 77,17.9998075 L77,21.0001925 C77,21.5523709 76.5529424,21.9499884 76.002935,21.8847264 C76.002935,21.8847264 71.7125021,21.4406159 69.0687531,20.6609239 C65.5220992,19.6149479 58.4287912,16.5229959 58.4287912,16.5229959 L58.7223449,12 Z" id="Rectangle-68" fill="#38393A"></path>
                    <path d="M0.841562271,14.5673184 C0.841562271,14.5673184 34.9603617,14.7999807 38.038914,14.3716231 C45.1311956,13.3847851 57.210265,7.24907713 57.210265,7.24907713 C58.1987084,6.76447266 59,7.27179929 59,8.36364014 L59,15.3796061 C59,16.4797667 58.1955006,17.7767649 57.207902,18.2594234 C57.207902,18.2594234 46.3403443,23.9274816 37.038914,25.3716231 C33.8102482,25.8729063 0.841562271,25.7837889 0.841562271,25.7837889 L0.841562271,14.5673184 Z" id="Rectangle-33" fill="#D8D8D8"></path>
                </g>
                <g id="Degson" transform="translate(85.000000, 117.000000)">
                    <rect id="Rectangle-24" fill="#004F94" x="0" y="13" width="58.6125995" height="37" rx="1"></rect>
                    <path d="M0,0.9996105 C0,0.447540865 0.44507788,0 0.990671175,0 L26.9376159,0 L57.6298966,4.84487712 C58.1726284,4.93054912 58.6125995,5.44326177 58.6125995,5.99678245 L58.6125995,46.0032175 C58.6125995,46.5537253 58.1691571,46.9434547 57.6219773,46.8736815 L27.2435784,43 L1.00192341,43 C0.448576389,43 0,42.5461844 0,42.0003895 L0,0.9996105 Z" id="Rectangle-24" fill="#0062B5"></path>
                    <polygon id="Rectangle-26" fill="#004F94" points="30 4 55 8 55 43 30 40"></polygon>
                    <g id="Oval-11-+-Line-+-Line" transform="translate(14.500000, 29.500000) rotate(-22.000000) translate(-14.500000, -29.500000) translate(8.000000, 23.000000)">
                        <circle id="Oval-11" fill="#D8D8D8" cx="6.5" cy="6.5" r="6.5"></circle>
                        <line x1="6.5" y1="3.03333333" x2="6.5" y2="9.96666667" id="Line" stroke="#979797" stroke-linecap="square"></line>
                        <line x1="9.96666667" y1="6.5" x2="3.03333333" y2="6.5" id="Line" stroke="#979797" stroke-linecap="square"></line>
                    </g>
                    <g id="Oval-11-+-Line-+-Line" transform="translate(14.475873, 11.882235) rotate(46.000000) translate(-14.475873, -11.882235) translate(7.953410, 5.359772)">
                        <circle id="Oval-11" fill="#D8D8D8" cx="6.52246312" cy="6.52246312" r="6.52246312"></circle>
                        <line x1="6.52246312" y1="3.04381612" x2="6.52246312" y2="10.0011101" id="Line" stroke="#979797" stroke-linecap="square"></line>
                        <line x1="10.0011101" y1="6.52246312" x2="3.04381612" y2="6.52246312" id="Line" stroke="#979797" stroke-linecap="square"></line>
                    </g>
                    <circle id="Oval-13" stroke="#0062B5" stroke-width="3" fill="#D8D8D8" cx="42.9643078" cy="15.2372667" r="2.5"></circle>
                    <circle id="Oval-13" stroke="#0062B5" stroke-width="3" fill="#D8D8D8" cx="43" cy="29" r="2.5"></circle>
                </g>
            </g>
        </g>
    </g>
</svg>